<?xml version="1.0" encoding="utf-8"?>
<!-- Generated by IcoMoon.io -->
<!DOCTYPE svg PUBLIC "-//W3C//DTD SVG 1.1//EN" "http://www.w3.org/Graphics/SVG/1.1/DTD/svg11.dtd">

<svg version="1.1" xmlns="http://www.w3.org/2000/svg" xmlns:xlink="http://www.w3.org/1999/xlink" width="2160" height="1344" viewBox="0 0 2160 1344">
<defs>
<g id="icon-Cake">
	<path class="path1" d="M65.854 57.805v-11.707h-11.708v11.707z"></path>
	<path class="path2" d="M64.39 38.78c0-2.424-4.39-8.78-4.39-8.78s-4.39 6.356-4.39 8.78 1.965 4.391 4.39 4.391c2.424 0 4.39-1.967 4.39-4.391z"></path>
	<path class="path3" d="M86.341 72.439l-8.78 2.927-8.782-2.927-8.779 2.927-8.78-2.927-8.781 2.927-8.78-2.927v17.561h52.682z"></path>
	<path class="path4" d="M77.561 54.877h-35.123c-6.457 0-11.707 5.251-11.707 11.708 0 6.457 5.25 11.706 11.707 11.706 3.493 0 6.634-1.536 8.78-3.97 2.146 2.431 5.288 3.97 8.78 3.97s6.635-1.536 8.78-3.97c2.146 2.431 5.286 3.97 8.779 3.97 6.456 0 11.708-5.249 11.708-11.706 0.004-6.456-5.248-11.708-11.704-11.708zM77.561 72.439c-6.338 0-8.779-5.855-8.779-5.855s-2.927 5.855-8.783 5.855c-5.854 0-8.78-5.855-8.78-5.855s-2.195 5.855-8.78 5.855c-3.227 0-5.854-2.625-5.854-5.855 0-3.227 2.627-5.854 5.854-5.854h35.123c3.226 0 5.854 2.626 5.854 5.854-0.004 3.234-2.629 5.855-5.855 5.855z"></path>
</g>
<g id="icon-Alarm">
	<path class="path1" d="M60 89.611v-3.061c-6.773-0.001-12.875-2.736-17.318-7.172-4.436-4.442-7.171-10.547-7.172-17.319 0.001-6.771 2.736-12.875 7.172-17.316 4.442-4.438 10.545-7.172 17.318-7.174 6.773 0.001 12.876 2.736 17.318 7.172 4.438 4.441 7.171 10.544 7.172 17.316-0.001 6.774-2.735 12.878-7.172 17.319-4.441 4.438-10.545 7.172-17.318 7.174v6.122c16.909-0.002 30.61-13.706 30.613-30.615-0.002-16.906-13.704-30.61-30.613-30.611-16.907 0.002-30.61 13.705-30.613 30.613 0.002 16.909 13.705 30.613 30.613 30.615v-3.062z"></path>
	<path class="path2" d="M92.61 42.092c-3.82-6.227-9.36-11.255-15.967-14.458l-2.671 5.509c5.552 2.691 10.213 6.92 13.419 12.15l5.22-3.201z"></path>
	<path class="path3" d="M32.61 45.292c3.206-5.23 7.865-9.458 13.419-12.15l-2.671-5.509c-6.609 3.203-12.149 8.23-15.967 14.458l5.22 3.201z"></path>
	<path class="path4" d="M56.939 46.754v16.571l10.003 10.009 4.331-4.329-8.211-8.214v-14.038z"></path>
</g>
<g id="icon-AppDrawer">
	<path class="path1" d="M30 45h15v-15h-15v15zM30 67.5h15v-15h-15v15zM52.5 90h15v-15h-15v15zM30 90h15v-15h-15v15zM52.5 45h15v-15h-15v15zM75 67.5h15v-15h-15v15zM75 45h15v-15h-15v15zM52.5 67.5h15v-15h-15v15zM75 90h15v-15h-15v15z"></path>
</g>
<g id="icon-Apple">
	<path class="path1" d="M52.5 60c-1.51 1.142-2.5 2.935-2.5 4.974 0 2.036 0.99 3.886 2.5 5.026 1.51-1.14 2.5-2.991 2.5-5.026 0-2.039-0.99-3.831-2.5-4.974zM71.001 42.7c-2.146 0-4.175 0.489-6.001 1.333v-11.533h-5v11.314c-0.352-2.749-1.55-5.405-3.665-7.522-3.023-3.020-7.156-4.088-11.085-3.542-0.49 3.532 0.44 7.093 2.822 9.998-8.678 0.486-15.572 7.656-15.572 16.453 0 10.989 4.958 18.317 12.758 24.877 2.498 2.125 5.708 3.424 9.242 3.424 1.951 0 3.809-0.392 5.5-1.101 1.693 0.709 3.55 1.101 5.5 1.101 3.535 0 6.745-1.299 9.241-3.422 7.802-6.56 12.759-13.89 12.759-24.879 0-9.111-7.387-16.499-16.499-16.499zM60 80.969c-1.56 1.109-3.445 1.78-5.5 1.78-2.87 0-4.934-1.245-6.184-2.31-7.033-5.911-11.066-12.065-11.066-21.24 0-6.48 5.27-11.75 11.75-11.75 5.065 0 9.351 3.24 11 7.744v25.776z"></path>
</g>
<g id="icon-Arrows-Bidirectional">
	<path class="path1" d="M64.5 75.029h-9l13.5 14.971 13.5-14.971h-9v-21.029h-9v21.029zM37.5 44.971h9v21.029h9v-21.029h9l-13.5-14.971-13.5 14.971z"></path>
</g>
<g id="icon-BackArrow">
	<path class="path1" d="M90 56.25h-45.645l20.948-20.947-5.303-5.303-30 30 30 30 5.303-5.303-20.948-20.947h45.645z"></path>
</g>
<g id="icon-Ball">
	<path class="path1" d="M36.354 41.579c-3.966 5.087-6.354 11.469-6.354 18.421s2.387 13.333 6.354 18.421c5.278-4.405 8.644-11.026 8.644-18.421s-3.366-14.015-8.644-18.421zM68.996 60c0-9.118 4.085-17.267 10.502-22.772-5.246-4.496-12.049-7.228-19.499-7.228-7.453 0-14.256 2.731-19.5 7.23 6.416 5.503 10.498 13.652 10.498 22.77s-4.081 17.267-10.498 22.77c5.244 4.496 12.047 7.23 19.5 7.23 7.45 0 14.252-2.731 19.5-7.228-6.419-5.503-10.504-13.655-10.504-22.772zM83.642 41.575c-5.276 4.409-8.645 11.027-8.645 18.425s3.369 14.019 8.645 18.425c3.97-5.089 6.358-11.473 6.358-18.425 0-6.955-2.387-13.336-6.358-18.425z"></path>
</g>
<g id="icon-Basket">
	<path class="path1" d="M49.352 57.886l10.648-14.846 10.648 14.846c0.805 1.121 2.366 1.38 3.489 0.575 1.121-0.805 1.38-2.368 0.574-3.489l-12.679-17.68c-0.467-0.651-1.229-1.043-2.031-1.043s-1.564 0.39-2.031 1.043l-12.68 17.68c-0.805 1.121-0.547 2.684 0.575 3.489 1.123 0.804 2.684 0.546 3.489-0.575z"></path>
	<path class="path2" d="M87.407 53.75h-54.814c-1.798 0-3.050 1.724-2.435 3.355l8.484 22.5c0.371 0.989 1.345 1.645 2.435 1.645h37.843c1.091 0 2.065-0.656 2.436-1.645l8.484-22.5c0.616-1.631-0.636-3.355-2.432-3.355zM60 71.25c-2.761 0-5-2.239-5-5s2.239-5 5-5 5 2.239 5 5-2.239 5-5 5z"></path>
</g>
<g id="icon-Battery">
	<path class="path1" d="M75 35.455h-5.454v-2.728c0-1.505-1.224-2.728-2.731-2.728h-13.631c-1.508 0-2.73 1.222-2.73 2.728v2.728h-5.454c-1.505 0-2.728 1.223-2.728 2.728v49.091c0 1.504 1.223 2.726 2.728 2.726h30c1.505 0 2.728-1.222 2.728-2.728v-49.091c0-1.504-1.223-2.726-2.728-2.726zM72.272 54.545h-24.545v-13.636h8.181v-5.454h8.181v5.454h8.182v13.636z"></path>
</g>
<g id="icon-Bell-Notificationsoff">
	<path class="path1" d="M64.5 34.5c0-2.485-2.015-4.5-4.5-4.5s-4.5 2.015-4.5 4.5c0 0.838 0 5.765 0 5.765l9 7.735c0 0 0-12.661 0-13.5z"></path>
	<path class="path2" d="M60 90c3.313 0 6-2.686 6-6h-12c0 3.314 2.686 6 6 6z"></path>
	<path class="path3" d="M30.128 34.371l4.243-4.243 55.499 55.499-4.243 4.243-55.499-55.499z"></path>
	<path class="path4" d="M81 68.387c0-5.627 0-10.151 0-11.344 0-11.599-9.401-21-21-21-3.305 0-6.419 0.785-9.199 2.145l30.199 30.199z"></path>
	<path class="path5" d="M45.765 41.638c-4.151 3.838-6.765 9.31-6.765 15.407 0 1.339 0 6.87 0 13.456l-6 6.999v3.5h52.129l-39.364-39.362z"></path>
</g>
<g id="icon-Bell-Notificationson">
	<path class="path1" d="M81 70.5c0-6.587 0-12.118 0-13.456 0-11.599-9.401-21-21-21s-21 9.401-21 21c0 1.339 0 6.87 0 13.456l-6 6.999v3.501h54v-3.501l-6-6.999z"></path>
	<path class="path2" d="M64.5 34.5c0-2.485-2.015-4.5-4.5-4.5s-4.5 2.015-4.5 4.5c0 0.838 0 12.661 0 13.5 0 2.485 2.016 4.5 4.5 4.5s4.5-2.015 4.5-4.5c0-0.839 0-12.661 0-13.5z"></path>
	<path class="path3" d="M60 90c3.313 0 6-2.686 6-6h-12c0 3.314 2.686 6 6 6z"></path>
</g>
<g id="icon-Bluetooth">
	<path class="path1" d="M76.499 48.259l-18.859-18.259v26.685l-11.445-10.513-2.695 2.873 11.936 10.955-11.936 10.957 2.695 2.869 11.445-10.507v26.681l18.859-18.261-11.87-13.044 11.87-10.436zM62.651 40.363l7.915 7.896-7.915 6.524v-14.42zM70.566 71.739l-7.915 7.9v-16.38l7.915 8.48z"></path>
</g>
<g id="icon-Bold">
	<path class="path1" d="M74.289 59.091c4.142-2.889 7.074-7.571 7.074-11.949 0-9.664-7.48-17.143-17.144-17.143h-26.786v60h30.181c8.972 0 15.891-7.277 15.891-16.251 0-6.495-3.7-12.059-9.216-14.657zM50.29 40.715h12.857c3.549 0 6.427 2.879 6.427 6.429s-2.879 6.429-6.427 6.429h-12.857v-12.857zM65.29 79.286h-15v-12.857h15c3.549 0 6.429 2.88 6.429 6.43 0 3.547-2.88 6.427-6.429 6.427z"></path>
</g>
<g id="icon-Bookmark">
	<path class="path1" d="M78.75 30h-20v20.281l-7.5-4-7.5 4v-20.281h-3c-3.315 0-7 2.969-7 6.281v48c0 3.316 3.685 5.719 7 5.719h38c3.314 0 5-2.402 5-5.719v-48c0-3.313-1.686-6.281-5-6.281z"></path>
</g>
<g id="icon-Briefcase">
	<path class="path1" d="M84.479 42.5h-11.126c0-7.5-6.115-8.226-12.097-8.226s-12.096 0.726-12.096 8.226h-13.066c-3.208 0-6.092 3.746-6.092 6.953v30.967c0 3.206 2.885 4.58 6.092 4.58h48.386c3.208 0 5.521-1.374 5.521-4.58v-30.967c0-3.206-2.314-6.953-5.521-6.953zM53.998 42.5c0-1.25 0-3.388 7.258-3.388 7.259 0 7.259 2.138 7.259 3.388h-14.516z"></path>
</g>
<g id="icon-Brightness">
	<path class="path1" d="M82.787 60.002l7.213-6.676-9.465-2.965 3.523-9.065-9.849 1.333-0.862-9.655-8.273 5.365-5.074-8.339-5.071 8.34-8.279-5.365-0.863 9.655-9.846-1.333 3.526 9.065-9.467 2.964 7.21 6.676-7.21 6.677 9.469 2.964-3.526 9.064 9.846-1.331 0.862 9.658 8.279-5.366 5.070 8.332 5.074-8.334 8.272 5.366 0.863-9.658 9.849 1.331-3.523-9.064 9.465-2.963-7.213-6.677zM60 78.169v-36.339c9.919 0.44 17.826 8.395 17.826 18.172s-7.907 17.728-17.826 18.166z"></path>
</g>
<g id="icon-Bus">
	<path class="path1" d="M60 30c-13.951 0-25.262 1.579-25.262 12.631v30c0 6.106 4.954 11.053 11.053 11.053l-4.736 4.738v1.579h37.895v-1.579l-4.738-4.738c6.112 0 11.054-4.946 11.054-11.053v-30c-0.001-11.053-11.314-12.631-25.265-12.631zM45.789 77.369c-2.615 0-4.736-2.121-4.736-4.736 0-2.616 2.121-4.738 4.736-4.738 2.619 0 4.738 2.121 4.738 4.738 0 2.614-2.119 4.736-4.738 4.736zM56.843 58.421h-15.79v-15.79h15.789v15.79zM74.21 77.369c-2.615 0-4.736-2.121-4.736-4.736 0-2.616 2.121-4.738 4.736-4.738 2.619 0 4.738 2.121 4.738 4.738 0 2.614-2.119 4.736-4.738 4.736zM78.947 58.421h-15.79v-15.79h15.79v15.79z"></path>
</g>
<g id="icon-Calendar">
	<path class="path1" d="M75 60h-18v18h18v-18zM69 72h-6v-6h6v6zM81 36h-3v-6h-6v6h-24v-6h-6v6h-3c-3.315 0-5.971 2.69-5.971 6l-0.029 42c0 3.316 2.685 6 6 6h42c3.31 0 6-2.683 6-6v-42c0-3.31-2.69-6-6-6zM81 84h-42v-33h42v33z"></path>
</g>
<g id="icon-Camera">
	<path class="path1" d="M51 33l-5.484 6h-9.516c-3.31 0-6 2.687-6 6v36c0 3.316 2.689 6 6 6h48c3.316 0 6-2.683 6-6v-36c0-3.311-2.683-6-6-6h-9.515l-5.485-6h-18zM60 78c-8.282 0-15-6.715-15-15s6.718-15 15-15c8.289 0 15 6.715 15 15s-6.711 15-15 15z"></path>
</g>
<g id="icon-Cancel-Circle">
	<path class="path1" d="M60 30c-16.583 0-30 13.421-30 30 0 16.58 13.417 30 30 30 16.58 0 30-13.42 30-30 0-16.579-13.42-30-30-30zM75 70.757l-4.243 4.243-10.757-10.757-10.757 10.757-4.243-4.243 10.757-10.757-10.757-10.757 4.243-4.243 10.757 10.757 10.757-10.757 4.243 4.243-10.757 10.757 10.757 10.757z"></path>
</g>
<g id="icon-Cancel">
	<path class="path1" d="M90 36.060l-6.061-6.060-23.939 23.94-23.94-23.94-6.060 6.060 23.94 23.94-23.94 23.939 6.060 6.061 23.94-23.939 23.939 23.939 6.061-6.061-23.939-23.939z"></path>
</g>
<g id="icon-Car">
	<path class="path1" d="M83.063 36.704c-0.676-1.965-2.539-3.371-4.729-3.371h-36.667c-2.191 0-4.050 1.406-4.726 3.371l-6.94 19.963v26.666c0 1.839 1.494 3.332 3.334 3.332h3.334c1.843 0 3.334-1.494 3.334-3.332v-3.332h40v3.334c0 1.839 1.494 3.332 3.334 3.332h3.332c1.844 0 3.334-1.494 3.334-3.332v-26.668l-6.939-19.963zM41.666 70c-2.76 0-5-2.24-5-5s2.24-5 5-5c2.764 0 5 2.24 5 5s-2.236 5-5 5zM78.334 70c-2.761 0-5-2.24-5-5s2.239-5 5-5c2.764 0 5 2.24 5 5s-2.236 5-5 5zM36.666 53.334l5-15h36.666l5 15h-46.666z"></path>
</g>
<g id="icon-Cart">
	<path class="path1" d="M48 78c-3.31 0-5.97 2.689-5.97 6 0 3.316 2.66 6 5.97 6 3.316 0 6-2.683 6-6 0-3.31-2.684-6-6-6zM30 36h6l10.79 22.761-4.055 7.356c-0.469 0.855-0.735 1.839-0.735 2.882 0 3.316 2.689 6 6 6h36v-6h-34.731c-0.414 0-0.75-0.335-0.75-0.751 0-0.131 0.035-0.257 0.096-0.362l2.69-4.886h22.348c2.256 0 4.221-1.245 5.246-3.089l10.729-19.466c0.239-0.425 0.373-0.92 0.373-1.445 0-1.659-1.345-3-3-3h-44.361l-1.216-2.565c-0.96-2.031-3.029-3.435-5.422-3.435h-6v6zM78 78c-3.31 0-5.971 2.689-5.971 6 0 3.316 2.661 6 5.971 6 3.315 0 6-2.683 6-6 0-3.31-2.684-6-6-6z"></path>
</g>
<g id="icon-CenterAlign">
	<path class="path1" d="M43.334 76.666h33.334v-6.666h-33.334v6.666zM30 90h60v-6.666h-60v6.666zM30 63.334h60v-6.666h-60v6.666zM43.334 50h33.334v-6.666h-33.334v6.666zM30 36.666h60v-6.666h-60v6.666z"></path>
</g>
<g id="icon-Chat">
	<path class="path1" d="M75 60v-27c0-1.655-1.345-3-3-3h-39c-1.655 0-3 1.345-3 3v42l12-12h30c1.655 0 3-1.345 3-3zM45 66v9c0 1.655 1.345 3 3 3h30l12 12v-42c0-1.655-1.345-3-3-3h-9v21h-33z"></path>
</g>
<g id="icon-Check-2">
	<path class="path1" d="M49.059 73.234l-14.234-14.234-4.825 4.825 19.059 19.059 40.941-40.943-4.824-4.825z"></path>
</g>
<g id="icon-Check-Circle">
	<path class="path1" d="M60 30c-16.57 0-30 13.431-30 30 0 16.57 13.43 30 30 30s30-13.43 30-30c0-16.569-13.43-30-30-30zM54 75l-15-15 4.243-4.243 10.757 10.757 22.757-22.759 4.243 4.244-27 27z"></path>
</g>
<g id="icon-Check">
	<path class="path1" d="M90 37.783l-6.376-4.315-31.124 41.815-17.831-13.125-4.669 6.35 24.375 18.025z"></path>
</g>
<g id="icon-Checkbox-Empty">
	<path class="path1" d="M83.334 36.666v46.666l-46.666 0.002v-46.669h46.666zM83.334 30h-46.667c-3.685 0-6.666 2.981-6.666 6.666v46.666c0 3.685 2.981 6.667 6.666 6.667h46.666c3.685 0 6.667-2.983 6.667-6.666v-46.667c0-3.685-2.983-6.666-6.666-6.666z"></path>
</g>
<g id="icon-Checkbox-Full">
	<path class="path1" d="M90 36.666c0-3.677-2.983-6.666-6.666-6.666h-46.667c-3.685 0-6.666 2.989-6.666 6.666v46.666c0 3.679 2.981 6.667 6.666 6.667h46.666c3.685 0 6.667-2.989 6.667-6.666v-46.667zM53.334 76.666l-16.667-16.666 4.714-4.714 11.953 11.954 25.286-25.286 4.714 4.714-29.999 29.999z"></path>
</g>
<g id="icon-Clip">
	<path class="path1" d="M70.91 43.636v31.364c0 6.024-4.885 10.91-10.91 10.91s-10.909-4.885-10.909-10.91v-34.091c0-3.766 3.051-6.818 6.818-6.818s6.819 3.051 6.819 6.818v28.637c0 1.504-1.22 2.728-2.728 2.728-1.51 0-2.728-1.224-2.728-2.728v-25.91h-4.091v25.91c0 3.766 3.053 6.817 6.819 6.817s6.818-3.051 6.818-6.817v-28.637c0-6.024-4.884-10.909-10.909-10.909-6.024 0-10.909 4.885-10.909 10.909v34.091c0 8.286 6.718 15 15 15s15-6.714 15-15v-31.364h-4.090z"></path>
</g>
<g id="icon-Clipboard">
	<path class="path1" d="M80.75 36.25h-12.283c-0.892-2.5-3.994-6-7.716-6s-6.825 3.5-7.718 6h-14.284c-3.314 0-6.25 2.063-6.25 5.379v42c0 3.313 2.936 6.371 6.25 6.371h42c3.315 0 5.5-3.059 5.5-6.371v-42c0-3.316-2.185-5.379-5.5-5.379zM56.891 36.632c0.011-0.047 0.029-0.094 0.043-0.14 0.094-0.301 0.212-0.594 0.371-0.864v0c0.339-0.581 0.81-0.754 1.385-1.101-0.569 0.347-1.048 1.723-1.385 1.723h6.891c-0.339 0-1.039-1.375-1.605-1.723 0.572 0.347 1.159 0.359 1.159 0.941v0.081c0 0.27 0.5 0.599 0.594 0.902 0.016 0.047 0.142 0.112 0.155 0.16 0.085 0.316 0.195 0.66 0.195 1.004 0 2.211-1.761 4.004-3.971 4.004-2.209 0-3.986-1.785-3.986-3.996 0-0.343 0.069-0.674 0.155-0.991zM80 83.75h-41.25v-40h5v3.879c0 2.207 2.791 4.871 5 4.871h24c2.209 0 3.5-2.664 3.5-4.871v-3.879h3.75v40z"></path>
</g>
<g id="icon-Clock">
	<path class="path1" d="M59.829 30.313c-16.41 0-29.672 13.29-29.672 29.687 0 16.399 13.262 29.689 29.672 29.689 16.406 0 29.7-13.29 29.7-29.689 0-16.397-13.295-29.687-29.7-29.687zM59.843 83.749c-13.121 0-23.749-10.631-23.749-23.749 0-13.116 10.627-23.75 23.749-23.75s23.75 10.635 23.75 23.75c0 13.118-10.629 23.749-23.75 23.749z"></path>
	<path class="path2" d="M61.328 42.188h-4.453v20.783l15.741 9.443 2.226-3.71-13.515-8.109z"></path>
</g>
<g id="icon-Closed">
	<path class="path1" d="M60 36c13.234 0 24 10.766 24 24s-10.766 24-24 24-24-10.766-24-24 10.766-24 24-24zM60 30c-16.567 0-30 13.431-30 30 0 16.57 13.433 30 30 30s30-13.43 30-30c0-16.569-13.433-30-30-30z"></path>
	<path class="path2" d="M43.371 80.871l37.5-37.5-4.243-4.243-37.5 37.5z"></path>
</g>
<g id="icon-CloudDownload">
	<path class="path1" d="M79.395 55.19c-2.159-8.717-10.010-15.19-19.395-15.19-7.487 0-14.006 4.123-17.431 10.215-7.126 1.165-12.569 7.331-12.569 14.785 0 8.284 6.716 15 15 15 2.505 0 29.626 0 32.5 0 6.904 0 12.5-5.596 12.5-12.5 0-6.255-4.61-11.39-10.605-12.31zM55 62.5v-10h10v10h7.5l-12.5 12.5-12.5-12.5h7.5z"></path>
</g>
<g id="icon-CloudUpload">
	<path class="path1" d="M79.395 55.19c-2.159-8.717-10.010-15.19-19.395-15.19-7.487 0-14.006 4.123-17.431 10.215-7.126 1.165-12.569 7.331-12.569 14.785 0 8.284 6.716 15 15 15 2.505 0 29.626 0 32.5 0 6.904 0 12.5-5.596 12.5-12.5 0-6.255-4.61-11.39-10.605-12.31zM65 62.5v10h-10v-10h-7.5l12.5-12.5 12.5 12.5h-7.5z"></path>
</g>
<g id="icon-Cloud-Check">
	<path class="path1" d="M79.395 55.19c-2.159-8.717-10.010-15.19-19.395-15.19-7.489 0-14.005 4.123-17.432 10.215-7.125 1.165-12.568 7.331-12.568 14.785 0 8.284 6.716 15 15 15 2.504 0 29.626 0 32.5 0 6.904 0 12.5-5.596 12.5-12.5 0-6.255-4.61-11.39-10.605-12.31zM55.79 72.5l-8.289-8.269 2.539-2.546 5.747 5.735 14.174-14.173 2.539 2.541-16.71 16.711z"></path>
</g>
<g id="icon-Cloud">
	<path class="path1" d="M79.395 55.19c-2.159-8.717-10.010-15.19-19.395-15.19-7.489 0-14.005 4.123-17.432 10.215-7.125 1.165-12.568 7.331-12.568 14.785 0 8.284 6.716 15 15 15 2.504 0 29.626 0 32.5 0 6.904 0 12.5-5.596 12.5-12.5 0-6.255-4.61-11.39-10.605-12.31z"></path>
</g>
<g id="icon-Color-Fill">
	<path class="path1" d="M75.201 61.465l-29.797-29.799-4.714 4.714 7.93 7.93-17.155 17.155c-1.952 1.952-1.952 5.117 0 7.070l18.334 18.334c0.976 0.976 2.256 1.465 3.535 1.465s2.559-0.489 3.535-1.465l18.334-18.334c1.952-1.952 1.952-5.117-0.001-7.070zM37.356 65l15.976-15.974 15.977 15.974h-31.954zM83.334 70c0 0-6.668 7.222-6.668 11.666 0 3.679 2.989 6.668 6.668 6.668 3.677 0 6.666-2.989 6.666-6.668 0-4.444-6.666-11.666-6.666-11.666z"></path>
</g>
<g id="icon-Columns">
	<path class="path1" d="M51.176 82.941h17.646v-45.883h-17.646v45.883zM30 82.941h17.648v-45.883h-17.648v45.883zM72.354 37.059v45.883h17.646v-45.883h-17.646z"></path>
</g>
<g id="icon-Comments">
	<path class="path1" d="M84 30h-48c-3.299 0-6 2.7-6 6v54l12-12h42c3.299 0 6-2.701 6-6.001v-35.999c0-3.3-2.701-6-6-6zM78 66h-36v-6h36v6zM78 57h-36v-6h36v6zM78 48h-36v-6h36v6z"></path>
</g>
<g id="icon-Compass">
	<path class="path1" d="M63.287 60c0 1.816-1.472 3.287-3.287 3.287s-3.287-1.472-3.287-3.287c0-1.816 1.472-3.287 3.287-3.287s3.287 1.472 3.287 3.287z"></path>
	<path class="path2" d="M60 30c-16.569 0-30 13.431-30 30 0 16.57 13.431 30 30 30 16.57 0 30-13.43 30-30 0-16.569-13.43-30-30-30zM66.364 66.364l-24.364 11.636 11.636-24.364 24.364-11.636-11.636 24.364z"></path>
</g>
<g id="icon-Contact">
	<path class="path1" d="M84 30h-48c-3.313 0-6 2.686-6 6v48c0 3.313 2.686 6 6 6h48c3.313 0 6-2.686 6-6v-48c0-3.314-2.686-6-6-6zM60 42c4.972 0 9 4.030 9 9 0 4.971-4.029 9-9 9s-9-4.030-9-9c0-4.97 4.027-9 9-9zM78 78h-36v-3.983c0-1.456 0.674-2.821 1.851-3.676 2.431-1.774 7.451-4.341 16.149-4.341 8.699 0 13.718 2.567 16.149 4.343 1.177 0.856 1.851 2.22 1.851 3.676v3.981z"></path>
</g>
<g id="icon-Copy">
	<path class="path1" d="M79.5 48v36h-27v-36h27zM79.5 42h-27c-3.314 0-6 2.686-6 6v36c0 3.313 2.686 6 6 6h27c3.314 0 6.001-2.686 6.001-6v-36c-0.001-3.314-2.687-6-6.001-6v0z"></path>
	<path class="path2" d="M40.5 75v-39h30v-6h-30c-3.314 0-6 2.686-6 6v39h6z"></path>
</g>
<g id="icon-CreditCard">
	<path class="path1" d="M30 78c0 3.313 2.686 6 6 6h48c3.313 0 6-2.686 6-6v-27h-59.976l-0.024 27z"></path>
	<path class="path2" d="M84 36h-48c-3.313 0-5.97 2.686-5.97 6l-0.004 3h59.974v-3c0-3.314-2.686-6-6-6z"></path>
</g>
<g id="icon-Cycling">
	<path class="path1" d="M70 42.999c2.48 0 4.5-2.016 4.5-4.5s-2.019-4.5-4.5-4.5c-2.488 0-4.5 2.016-4.5 4.5s2.012 4.5 4.5 4.5zM77.5 61c-6.904 0-12.5 5.597-12.5 12.501s5.596 12.5 12.5 12.5c6.901 0 12.5-5.596 12.5-12.5s-5.599-12.501-12.5-12.501zM77.5 82.251c-4.831 0-8.75-3.916-8.75-8.75s3.919-8.75 8.75-8.75 8.75 3.916 8.75 8.75-3.919 8.75-8.75 8.75zM67 56h10.5v-4.5h-8.005l-4.834-8.165c-0.74-1.247-2.102-2.085-3.66-2.085-1.174 0-2.236 0.475-3.005 1.245l-9.244 9.242c-0.771 0.77-1.252 1.835-1.252 3.013 0 1.573 0.835 2.903 2.124 3.68l8.376 5.071v12.5h4.5v-16.195l-5.625-4.181 5.801-5.825 4.324 6.2zM42.5 61c-6.904 0-12.5 5.597-12.5 12.501s5.596 12.5 12.5 12.5c6.901 0 12.5-5.596 12.5-12.5s-5.599-12.501-12.5-12.501zM42.5 82.251c-4.831 0-8.75-3.916-8.75-8.75s3.919-8.75 8.75-8.75 8.75 3.916 8.75 8.75-3.919 8.75-8.75 8.75z"></path>
</g>
<g id="icon-DataUsage">
	<path class="path1" d="M60 30c-16.55 0-30 13.459-30 30 0 16.553 13.45 30 30 30 16.54 0 30-13.447 30-30 0-16.541-13.46-30-30-30zM33.691 60c0-14.51 11.8-26.312 26.309-26.312v25.682l17.942 19.821c-4.706 4.408-11.005 7.13-17.942 7.13-14.507 0-26.309-11.814-26.309-26.321z"></path>
</g>
<g id="icon-Directions">
	<path class="path1" d="M89.121 57.883l-27.009-27.002c-1.166-1.172-3.070-1.172-4.236 0.002l-26.999 27c-1.169 1.174-1.172 3.069 0 4.243l26.994 26.987c0.005 0.006 0.002 0.006 0.005 0.013 1.175 1.166 3.070 1.17 4.243 0l27.002-27.001c1.171-1.172 1.171-3.068 0-4.241zM66.001 67.499v-7.499h-12v8.999h-6v-11.999c0-1.66 1.341-3 3-3h15v-7.5l10.499 10.5-10.499 10.499z"></path>
</g>
<g id="icon-Document">
	<path class="path1" d="M83.334 30h-46.667c-3.681 0-6.666 2.985-6.666 6.666v46.666c0 3.682 2.985 6.667 6.666 6.667h46.666c3.682 0 6.667-2.985 6.667-6.666v-46.667c0-3.681-2.985-6.666-6.666-6.666zM76.699 50h-33.365v-6.666h33.366v6.666zM76.699 63.334h-33.365v-6.666h33.366v6.666zM66.699 76.666h-23.365v-6.666h23.366v6.666z"></path>
</g>
<g id="icon-DownArrow">
	<path class="path1" d="M30 45l30 30 30-30z"></path>
</g>
<g id="icon-Download">
	<path class="path1" d="M30 82.5h58.75v7.5h-58.75v-7.5z"></path>
	<path class="path2" d="M81.64 52.5h-11.64v-22.5h-23.75v22.5h-10.763l23.076 23.076z"></path>
</g>
<g id="icon-Drawer">
	<path class="path1" d="M30 80h60v-6.666h-60v6.666zM30 63.334h60v-6.666h-60v6.666zM30 46.666h60v-6.666h-60v6.666z"></path>
</g>
<g id="icon-Eat-2">
	<path class="path1" d="M48 90h6v-24h-6v24zM42 30h-3v60h6v-30.53c5.17-1.672 9-7.489 9-14.47 0-8.285-5.37-15-12-15zM57 90h6v-24h-6v24zM69 30c-6.628 0-12 6.715-12 15 0 6.981 3.835 12.796 9 14.47v30.53h6v-30.53c5.169-1.672 9-7.489 9-14.47 0-8.285-5.37-15-12-15z"></path>
</g>
<g id="icon-Eat">
	<path class="path1" d="M46.814 63.542l8.875-8.878-22.012-22.009c-4.901 4.901-4.901 12.846 0 17.75l13.138 13.136z"></path>
	<path class="path2" d="M68.096 57.855c4.786 2.237 11.54 0.665 16.532-4.33 6.006-6.002 7.149-14.599 2.552-19.192-4.597-4.592-13.189-3.454-19.193 2.552-4.995 4.995-6.566 11.746-4.33 16.531-6.981 6.981-30.629 30.63-30.629 30.63l4.436 4.438 21.583-21.585 21.586 21.585 4.438-4.438-21.585-21.583 4.609-4.609z"></path>
</g>
<g id="icon-Edit">
	<path class="path1" d="M30 77.5v12.5h12.5l36.881-36.881-12.5-12.5-36.881 36.881zM89.024 43.476c1.303-1.303 1.303-3.411 0-4.714l-7.784-7.786c-1.305-1.303-3.414-1.303-4.716 0l-6.107 6.106 12.5 12.5 6.107-6.106z"></path>
</g>
<g id="icon-Envelope-Open">
	<path class="path1" d="M89.971 52.5c0-2.154-1.121-4.041-2.819-5.101l-27.152-15.899-27.152 15.899c-1.695 1.060-2.848 2.947-2.848 5.101v30c0 3.313 2.686 6 6 6h48c3.313 0 6-2.686 6-6l-0.029-30zM60 67.5l-24.785-15.491 24.785-14.509 24.782 14.51-24.782 15.49z"></path>
</g>
<g id="icon-Envelope">
	<path class="path1" d="M84 36h-48c-3.311 0-5.97 2.687-5.97 6l-0.030 36c0 3.314 2.687 6 6 6h48c3.314 0 6-2.685 6-6v-36c0-3.313-2.685-6-6-6zM84 48l-24 15-24-15v-6l24 15 24-15v6z"></path>
</g>
<g id="icon-Facebook">
	<path class="path1" d="M84 30h-48c-3.311 0-5.97 2.685-5.97 6l-0.030 48c0 3.314 2.687 6 6 6h48c3.314 0 6-2.685 6-6v-48c0-3.315-2.685-6-6-6zM81 36v9h-6c-1.655 0-3 1.341-3 3v6h9v9h-9v21h-9v-21h-6v-9h6v-7.5c0-5.801 4.7-10.5 10.499-10.5h7.501z"></path>
</g>
<g id="icon-Family">
	<path class="path1" d="M75.209 53.578c-1.396-3.871-5.102-6.353-9.455-6.353-9.54 0-17.466 2.669-24.27 8.326l13.711 13.711h13.296l4.884 14.020c0.785 2.237 2.919 3.846 5.428 3.846 3.174 0 5.743-2.567 5.743-5.741 0-0.661-0.113-1.304-0.32-1.896l-9.016-25.914zM59.919 75.646h-24.178c-3.171 0-5.741 2.569-5.741 5.743s2.571 5.741 5.741 5.741h20.095c3.174 0 5.741-2.567 5.741-5.741 0-0.661-0.113-1.304-0.317-1.896l-1.341-3.846zM81.674 32.87c-4.597 0-8.326 3.729-8.326 8.326s3.729 8.326 8.326 8.326c4.599 0 8.326-3.729 8.326-8.326s-3.727-8.326-8.326-8.326z"></path>
</g>
<g id="icon-Files">
	<path class="path1" d="M42 30c-3.31 0-5.971 2.684-5.971 6l-0.029 48c0 3.316 2.657 6 5.971 6h36.029c3.315 0 6-2.683 6-6v-36l-18-18h-24zM63 51v-16.5l16.5 16.5h-16.5z"></path>
</g>
<g id="icon-Filter">
	<path class="path1" d="M30 41.25h60v7.5h-60v-7.5z"></path>
	<path class="path2" d="M41.25 56.25h37.5v7.5h-37.5v-7.5z"></path>
	<path class="path3" d="M51.25 71.25h17.5v7.5h-17.5v-7.5z"></path>
</g>
<g id="icon-Flag">
	<path class="path1" d="M33.75 90h7.5v-60h-7.5v60zM45 71.25h41.25v-41.25h-41.25v41.25z"></path>
</g>
<g id="icon-Folder">
	<path class="path1" d="M54 36h-18c-3.316 0-5.97 2.687-5.97 6l-0.030 36c0 3.315 2.684 6 6 6h48c3.313 0 6-2.684 6-6v-30c0-3.311-2.686-6-6-6h-24l-6-6z"></path>
</g>
<g id="icon-Frame">
	<path class="path1" d="M79.063 30h-10.313v6.25h10.313c1.772 0 2.188 2.344 2.188 4.116v10.884h7.5v-10.884c0-5.316-4.37-10.366-9.688-10.366z"></path>
	<path class="path2" d="M81.25 81.081c0 1.772-0.415 2.669-2.188 2.669h-10.313v6.25h10.313c5.317 0 9.688-3.601 9.688-8.919v-9.831h-7.5v9.831z"></path>
	<path class="path3" d="M36.25 81.081v-9.831h-6.25v9.831c0 5.317 5.174 8.919 10.491 8.919h9.509v-6.25h-9.509c-1.772 0-4.241-0.896-4.241-2.669z"></path>
	<path class="path4" d="M30 40.366v10.884h6.25v-10.884c0-1.772 2.469-4.116 4.241-4.116h9.509v-6.25h-9.509c-5.318 0-10.491 5.050-10.491 10.366z"></path>
</g>
<g id="icon-GooglePlus">
	<path class="path1" d="M60.621 54.425c0-3.124-1.888-7.969-5.527-7.969-1.14 0-2.369 0.561-3.076 1.438-0.744 0.896-0.971 2.068-0.971 3.189 0 2.9 1.724 7.709 5.494 7.709 1.105 0 2.284-0.527 2.991-1.217 1-0.997 1.090-2.379 1.090-3.149z"></path>
	<path class="path2" d="M58.256 65.801c-0.351-0.041-0.571-0.041-1.014-0.041-0.395 0-2.762 0.082-4.607 0.692-0.97 0.347-3.77 1.382-3.77 4.453 0 3.073 3.025 5.282 7.72 5.282 4.214 0 6.449-1.999 6.449-4.679 0.001-2.21-1.445-3.373-4.778-5.707z"></path>
	<path class="path3" d="M60 30c-16.569 0-30 13.431-30 30 0 16.57 13.431 30 30 30 16.57 0 30-13.43 30-30 0-16.569-13.43-30-30-30zM54.43 78c-6.364 0-9.43-2.983-9.43-6.187 0-1.553 0.79-3.763 3.386-5.28 2.711-1.64 6.399-1.86 8.377-1.995-0.616-0.774-1.319-1.594-1.319-2.941 0-0.725 0.22-1.161 0.444-1.686-0.489 0.041-0.971 0.086-1.409 0.086-4.651 0-7.291-3.425-7.291-6.8 0-1.993 0.925-4.209 2.821-5.8 2.491-2.036 5.482-2.396 7.849-2.396h9.041l-2.813 1.435h-2.72c1.007 0.964 3.121 2.629 3.121 5.919 0 3.201-1.844 4.793-3.689 6.212-0.569 0.568-1.235 1.179-1.235 2.128s0.666 1.474 1.15 1.855l1.577 1.215c1.933 1.603 3.677 3.079 3.677 6.059 0 4.070-3.992 8.177-11.54 8.177zM81 63h-6v6h-3v-6h-6v-3h6v-6h3v6h6v3z"></path>
</g>
<g id="icon-GPS">
	<path class="path1" d="M60 49.091c-6.025 0-10.909 4.884-10.909 10.909 0 6.024 4.884 10.91 10.909 10.91 6.024 0 10.91-4.885 10.91-10.91s-4.886-10.909-10.91-10.909zM84.386 57.272c-1.258-11.375-10.284-20.396-21.659-21.658v-5.615h-5.454v5.616c-11.375 1.261-20.401 10.283-21.659 21.658h-5.615v5.454h5.615c1.256 11.374 10.284 20.396 21.659 21.659v5.614h5.454v-5.614c11.376-1.262 20.401-10.286 21.659-21.659h5.614v-5.454h-5.614zM60 79.090c-10.545 0-19.091-8.546-19.091-19.090 0-10.543 8.546-19.091 19.091-19.091s19.090 8.549 19.090 19.091c0 10.545-8.545 19.090-19.090 19.090z"></path>
</g>
<g id="icon-GraduationHat">
	<path class="path1" d="M40.909 63.223v10.91l19.091 10.414 19.090-10.414v-10.91l-19.090 10.414-19.091-10.414zM60 35.455l-30 16.364 30 16.364 24.546-13.389v18.844h5.454v-21.819l-30-16.364z"></path>
</g>
<g id="icon-Grid">
	<path class="path1" d="M61.765 58.235h28.235v-24.706h-28.235v24.706zM30 58.235h28.235v-24.706h-28.235v24.706zM30 86.471h28.235v-24.707h-28.235v24.707zM61.765 86.471h28.235v-24.707h-28.235v24.707z"></path>
</g>
<g id="icon-Handwriting">
	<path class="path1" d="M89.974 58.919c-1.2 0.004-4.76 0.035-8.582 0.193-0.080-2.624-0.617-5.341-1.993-7.723-1.915-3.326-5.192-5.462-9.472-6.174-8.97-1.495-15.365 7.431-21.031 15.298-2.576 3.576-6.469 8.985-8.338 9.137-0.291 0.019-0.724-0.411-0.857-0.546-3.004-3.004 0.294-8.905 4.914-16.319 4.069-6.527 7.912-12.675 4.685-17.514-1.956-2.938-4.479-3.613-6.253-3.689-0.111-0.004-0.224 0.058-0.339 0.058-5.945 0-11.615 6.836-12.707 8.203l5.368 4.217c1.816-2.27 5.434-5.31 7.314-5.31 0.023 0 0.045 0 0.068 0 0.139 0 0.396-0.165 0.829 0.479 0.767 1.15-3.134 7.060-4.799 9.733-4.922 7.898-11.046 17.804-3.939 24.908 2.33 2.329 4.685 2.696 6.272 2.589 5.041-0.412 8.897-5.747 13.366-11.953 4.498-6.246 9.647-13.31 14.318-12.523 2.991 0.501 4.084 1.852 4.648 2.824 0.765 1.321 1.061 3.015 1.079 4.756-1.549 0.166-2.889 0.373-3.801 0.628-3.881 1.094-15.107 6.589-16.921 14.615-0.615 2.728-0.398 6.805 4.13 10.768 2.489 2.18 4.83 2.842 6.76 2.842 0.926 0 1.764-0.157 2.471-0.367 7.63-2.297 11.546-14.873 12.353-17.76 0.215-0.596 0.752-2.166 1.2-4.262 3.227-0.148 6.72-0.219 9.29-0.233l-0.030-6.874zM73.014 68.030l-0.094 0.295c-1.356 4.937-4.799 12.254-7.744 13.14-0.309 0.089-1.124 0.336-2.722-1.066-2.396-2.095-2.071-3.532-1.95-4.074 0.9-3.985 8.437-8.489 12.077-9.509 0.236-0.067 0.538-0.13 0.891-0.188-0.163 0.555-0.324 1.034-0.459 1.401z"></path>
</g>
<g id="icon-Hangouts">
	<path class="path1" d="M60 30c-13.74 0-24.877 11.139-24.877 24.877 0 13.74 11.139 24.877 24.877 24.877h1.464v10.245c14.222-6.86 23.414-21.951 23.414-35.123 0-13.739-11.139-24.877-24.877-24.877zM58.536 56.341l-2.926 5.854h-2.926l2.926-5.854h-5.854v-8.78h8.78v8.78zM70.244 56.341l-2.927 5.854h-2.927l2.927-5.854h-5.854v-8.78h8.78v8.78z"></path>
</g>
<g id="icon-Heart-Check">
	<path class="path1" d="M75 33.334c-6.517 0-12.767 4.225-15 10-2.234-5.775-8.49-10-15-10-8.476 0-15 6.439-15 15 0 11.765 12.644 20.86 30 38.334 17.357-17.474 30-26.569 30-38.334 0-8.561-6.524-15-15-15zM60 70l-13.334-13.334 4.714-4.714 8.62 8.62 18.62-18.62 4.714 4.714-23.334 23.334z"></path>
</g>
<g id="icon-Heart-Empty">
	<path class="path1" d="M73.333 39c5.884 0 10.667 4.785 10.667 10.666s-11.84 19.181-23.994 29.55c-12.161-10.397-24.006-23.709-24.006-29.55 0-5.881 4.785-10.666 10.667-10.666 7.276 0 13.333 9 13.333 9s5.69-9 13.333-9zM73.333 33c-5.479 0-10.294 2.678-13.333 6.759-3.039-4.081-7.855-6.759-13.334-6.759-9.204 0-16.666 7.463-16.666 16.666 0 13.334 30 37.334 30 37.334s30-23.921 30-37.333c0-9.205-7.462-16.667-16.667-16.667v0z"></path>
</g>
<g id="icon-Heart">
	<path class="path1" d="M74.999 33.334c-6.517 0-12.767 4.225-15 10-2.234-5.775-8.49-10-15-10-8.476 0-15 6.439-15 15 0 11.666 11.666 21.666 30 38.334 18.334-16.666 30-26.666 30-38.334 0-8.561-6.524-15-15-15z"></path>
</g>
<g id="icon-Help">
	<path class="path1" d="M63 75h-6v-6h6v6z"></path>
	<path class="path2" d="M60 36c13.234 0 24 10.766 24 24s-10.766 24-24 24-24-10.766-24-24 10.766-24 24-24zM60 30c-16.567 0-30 13.431-30 30 0 16.57 13.433 30 30 30s30-13.43 30-30c0-16.569-13.433-30-30-30v0z"></path>
	<path class="path3" d="M57 66c0-4.265 1.761-5.849 3.319-7.085 0.809-0.75 1.454-1.569 1.936-2.456 0.484-0.889 0.724-1.906 0.724-3.050 0-1.236-0.272-2.215-0.82-2.931-0.546-0.718-1.321-1.075-2.329-1.075-0.794 0-2.956 0.38-2.956 4.551h-5.83l-0.044-1.079c-0.041-2.566 0.761-4.52 2.405-5.861 1.646-1.343 3.789-2.012 6.425-2.012 2.85 0 5.091 0.75 6.724 2.25s2.446 3.54 2.446 6.119c0 7.054-6 7.523-6 12.631h-6z"></path>
</g>
<g id="icon-Home">
	<path class="path1" d="M83.571 45h-47.143l-6.429 17.5h3.75v23.75h32.5v-23.75h12.5v23.75h7.5v-23.75h3.75l-6.429-17.5zM60 77.5h-18.75v-15h18.75v15z"></path>
	<path class="path2" d="M36.25 33.75h50v7.5h-50v-7.5z"></path>
</g>
<g id="icon-HorizontalGrid">
	<path class="path1" d="M30 38.75h18.75v21.25h-18.75v-21.25z"></path>
	<path class="path2" d="M51.25 38.75h17.5v21.25h-17.5v-21.25z"></path>
	<path class="path3" d="M71.25 38.75h18.75v21.25h-18.75v-21.25z"></path>
	<path class="path4" d="M30 61.25h18.75v21.25h-18.75v-21.25z"></path>
	<path class="path5" d="M51.25 61.25h17.5v21.25h-17.5v-21.25z"></path>
	<path class="path6" d="M71.25 61.25h18.75v21.25h-18.75v-21.25z"></path>
</g>
<g id="icon-Image">
	<path class="path1" d="M84 42v36h-48v-36h48zM84 36h-48c-3.313 0-6 2.686-6 6v36c0 3.313 2.686 6 6 6h48c3.313 0 6-2.686 6-6v-36c0-3.314-2.686-6-6-6v0z"></path>
	<path class="path2" d="M48 54l12 9 6-3 12 7.271v4.729h-36v-12z"></path>
	<path class="path3" d="M78 52.5c0 2.485-2.015 4.5-4.5 4.5s-4.5-2.015-4.5-4.5c0-2.485 2.015-4.5 4.5-4.5s4.5 2.015 4.5 4.5z"></path>
</g>
<g id="icon-Inbox">
	<path class="path1" d="M88.476 37.424l-4.615-5.604c-0.921-1.11-2.309-1.82-3.861-1.82h-40c-1.553 0-2.94 0.71-3.857 1.82l-4.619 5.604c-0.951 1.154-1.524 2.633-1.524 4.243v41.666c0 3.685 2.985 6.667 6.666 6.667h46.666c3.682 0 6.667-2.983 6.667-6.666v-41.668c0-1.61-0.57-3.089-1.524-4.243zM60 78.334l-18.334-18.334h11.666v-6.666h13.334v6.666h11.668l-18.334 18.334zM37.084 36.666l2.709-3.334h40l3.125 3.334h-45.834z"></path>
</g>
<g id="icon-Information">
	<path class="path1" d="M60 30c-16.56 0-30 13.433-30 30s13.44 30 30 30 30-13.433 30-30-13.44-30-30-30zM63.75 75h-7.5v-18.75h7.5v18.75zM63.75 52.5h-7.5v-7.5h7.5v7.5z"></path>
</g>
<g id="icon-Italics">
	<path class="path1" d="M51.429 30v12.857h9.488l-14.69 34.285h-11.94v12.857h34.285v-12.857h-9.487l14.69-34.285h11.94v-12.857z"></path>
</g>
<g id="icon-Join">
	<path class="path1" d="M80.449 83.94l-15.449-15.907v-23.032h7.666l-12.874-15.020-12.875 15.020h9.332v23.036l-16.282 15.904 5.881 6.069 14.038-14.132 14.312 14.132z"></path>
</g>
<g id="icon-Justify">
	<path class="path1" d="M30 90h60v-6.666h-60v6.666zM30 76.666h60v-6.666h-60v6.666zM30 63.334h60v-6.666h-60v6.666zM30 50h60v-6.666h-60v6.666zM30 36.666h60v-6.666h-60v6.666z"></path>
</g>
<g id="icon-Keyboard">
	<path class="path1" d="M90 45.469c0-3.205-1.006-4.219-4.214-4.219h-48.388c-3.206 0-7.399 1.014-7.399 4.219v27.097c0 3.209 4.193 6.184 7.399 6.184h48.386c3.209 0 4.215-2.975 4.215-6.184v-27.097zM65 46.25h6.25v6.25h-6.25v-6.25zM65 56.25h6.25v6.25h-6.25v-6.25zM57.5 46.25h6.25v6.25h-6.25v-6.25zM57.5 56.25h6.25v6.25h-6.25v-6.25zM50 46.25h6.25v6.25h-6.25v-6.25zM50 56.25h6.25v6.25h-6.25v-6.25zM42.5 46.25h5v6.25h-5v-6.25zM42.5 56.25h5v6.25h-5v-6.25zM75 69.961c0 0.714-0.364 1.289-1.433 1.289h-23.225c-1.067 0-2.842-0.575-2.842-1.289v-1.289c0-0.715 1.775-1.172 2.842-1.172h23.225c1.069 0 1.433 0.457 1.433 1.172v1.289zM78.75 62.5h-5v-6.25h5v6.25zM78.75 52.5h-5v-6.25h5v6.25z"></path>
</g>
<g id="icon-Label">
	<path class="path1" d="M76.12 41.638c-1.63-1.629-3.88-2.636-6.364-2.636l-33.756 0.029c-3.313 0-6 2.66-6 5.97v30c0 3.316 2.686 6 6 6h33.756c2.484 0 4.734-1.007 6.364-2.636l13.88-18.364-13.88-18.362z"></path>
</g>
<g id="icon-LeftAlign">
	<path class="path1" d="M70 70h-40v6.666h40v-6.666zM70 43.334h-40v6.666h40v-6.666zM30 63.334h60v-6.666h-60v6.666zM30 90h60v-6.666h-60v6.666zM30 36.666h60v-6.666h-60v6.666z"></path>
</g>
<g id="icon-LeftCaret">
	<path class="path1" d="M78.512 37.024l-7.025-7.024-29.999 30 29.999 30 7.025-7.022-22.978-22.978z"></path>
</g>
<g id="icon-Location">
	<path class="path1" d="M60 30c-11.595 0-21 9.404-21 21 0 15.75 21 39 21 39s21-23.25 21-39c0-11.596-9.405-21-21-21zM60 58.5c-4.14 0-7.5-3.358-7.5-7.5s3.36-7.5 7.5-7.5c4.142 0 7.5 3.358 7.5 7.5s-3.358 7.5-7.5 7.5z"></path>
</g>
<g id="icon-Lock-Open">
	<path class="path1" d="M84 84v-30c0-3.314-2.686-6-6-6h-36c-3.314 0-6 2.686-6 6v30c0 3.311 2.686 6 6 6h36c3.314 0 6-2.685 6-6zM66 69c0 3.311-2.686 6-6 6s-6-2.685-6-6 2.686-6 6-6c3.313 0 6 2.686 6 6z"></path>
	<path class="path2" d="M78 60c0-1.303 0-13.697 0-15-0.002-9.943-8.057-17.998-18-18-4.339-0.001-8.346 1.545-11.451 4.111-3.107 2.564-5.342 6.156-6.184 10.265l5.879 1.201c0.556-2.726 2.045-5.123 4.124-6.839 2.083-1.714 4.724-2.738 7.633-2.739 3.324 0.001 6.305 1.339 8.485 3.515 2.176 2.181 3.514 5.161 3.515 8.486 0 1.303 0 13.697 0 15h6z"></path>
</g>
<g id="icon-Lock">
	<path class="path1" d="M77.143 50v-2.858c0-9.466-7.676-17.143-17.143-17.143-9.467 0-17.115 7.676-17.115 17.143l-0.028 2.858c-3.155 0-5.714 2.559-5.714 5.714v28.571c0 3.155 2.559 5.714 5.714 5.714h34.285c3.156 0 5.715-2.559 5.715-5.714v-28.571c0-3.155-2.559-5.714-5.715-5.714zM60 75.714c-3.155 0-5.714-2.559-5.714-5.714s2.559-5.714 5.714-5.714 5.714 2.559 5.714 5.714-2.559 5.714-5.714 5.714zM71.713 50h-23.428v-2.858c0-6.459 5.227-11.694 11.681-11.713 0.011 0 0.023-0.002 0.034-0.002s0.023 0.002 0.034 0.002c6.454 0.019 11.679 5.252 11.679 11.713v2.858z"></path>
</g>
<g id="icon-Magazine">
	<path class="path1" d="M82.774 35l-4.776-5-4.159 4.331-4.176-4.331-4.496 4.664-4.5-4.664-4.824 5-4.83-5-4.825 5-4.83-5-4.429 5-4.429-5v60l4.57-5 4.695 5 4.12-4.333 4.154 4.333 4.489-4.667 4.494 4.667 4.824-5 4.826 5 4.829-5 4.825 5 4.586-5 4.589 5v-60l-4.726 5zM77.5 73.75h-35v-7.5h35v7.5zM77.5 62.5h-35v-8.75h35v8.75zM77.5 50h-35v-7.5h35v7.5z"></path>
</g>
<g id="icon-MagicWand">
	<path class="path1" d="M66.767 45.047c-0.725-0.763-1.929-0.793-2.692-0.071l-33.479 31.663c-0.369 0.345-0.583 0.826-0.596 1.333-0.014 0.505 0.175 0.998 0.525 1.363l7.88 8.291c0.724 0.76 1.929 0.794 2.691 0.071l30.703-29.034c1.104-1.046 1.748-2.488 1.787-4.006s-0.525-2.99-1.574-4.091l-5.245-5.518zM63.283 62.942l-6.826-7.183 8.822-8.265 6.826 7.179-8.822 8.269z"></path>
	<path class="path2" d="M47.466 41.57l6.314 2.845-2.842-6.315 2.842-6.319-6.314 2.845-6.317-2.845 2.844 6.319-2.844 6.315z"></path>
	<path class="path3" d="M90 31.781l-6.315 2.845-6.315-2.845 2.841 6.319-2.841 6.315 6.315-2.845 6.315 2.845-2.843-6.315z"></path>
	<path class="path4" d="M83.685 67.967l-6.315-2.84 2.841 6.314-2.841 6.315 6.315-2.84 6.315 2.84-2.843-6.315 2.843-6.314z"></path>
</g>
<g id="icon-Maps">
	<path class="path1" d="M69.29 40.345l-18.395-10.345-18.395 10.345v49.655l18.599-10.344 18.2 10.344 18.201-8.276v-49.655l-18.21 8.276zM68.75 83.792l-17.5-10.344v-37.243l17.5 10.345v37.241z"></path>
</g>
<g id="icon-Message">
	<path class="path1" d="M84 30h-48c-3.311 0-6 2.687-6 6v54l12-12h42c3.314 0 6-2.685 6-6.001v-35.999c0-3.313-2.685-6-6-6z"></path>
</g>
<g id="icon-Mic">
	<path class="path1" d="M60 67.894c5.231 0 9.444-4.244 9.444-9.474l0.026-18.947c0-5.235-4.239-9.472-9.47-9.472-5.23 0-9.474 4.237-9.474 9.474v18.947c0 5.23 4.244 9.472 9.474 9.472zM76.734 58.421c0 9.474-8.012 16.104-16.734 16.104-8.724 0-16.736-6.631-16.736-16.104h-5.369c0 10.784 8.585 19.685 18.947 21.214v10.365h6.316v-10.365c10.352-1.53 18.947-10.43 18.947-21.214h-5.372z"></path>
</g>
<g id="icon-MosaicGrid">
	<path class="path1" d="M30 37.5h20v45h-20v-45z"></path>
	<path class="path2" d="M52.5 37.5h37.5v20h-37.5v-20z"></path>
	<path class="path3" d="M52.5 60h17.5v22.5h-17.5v-22.5z"></path>
	<path class="path4" d="M72.5 60h17.5v22.5h-17.5v-22.5z"></path>
</g>
<g id="icon-Movie">
	<path class="path1" d="M78 36l6 12h-7.5l-6-12h-8.25l6 12h-7.5l-6-12h-8.25l6 12h-7.5l-6-12h-3c-3.313 0-6 2.686-6 6v36c0 3.313 2.686 6 6 6h48c3.313 0 6-2.686 6-6v-42h-12z"></path>
</g>
<g id="icon-Mute">
	<path class="path1" d="M75 60c0-5.886-3.399-10.966-8.334-13.427v7.366l8.181 8.18c0.1-0.692 0.152-1.399 0.152-2.119zM83.334 60c0 3.13-0.681 6.080-1.798 8.809l5.045 5.045c2.173-4.146 3.419-8.85 3.419-13.854 0-14.278-9.976-26.201-23.334-29.234v6.876c9.636 2.873 16.667 11.791 16.667 22.358zM34.245 30l-4.245 4.244 15.755 15.756h-15.755v20h13.334l16.666 16.666v-22.421l14.184 14.184c-2.234 1.723-4.746 3.099-7.517 3.926v6.879c4.59-1.045 8.764-3.157 12.285-6.039l6.804 6.805 4.245-4.245-55.755-55.755zM60 33.334l-6.97 6.97 6.97 6.969v-13.939z"></path>
</g>
<g id="icon-Navigate">
	<path class="path1" d="M60 57.5h-30l59.878-28.357-29.878 61.211z"></path>
</g>
<g id="icon-Network">
	<path class="path1" d="M90 37.052c0-3.55-2.878-7.052-6.429-7.052h-47.143c-3.551 0-6.429 3.502-6.429 7.052v47.145c0 3.553 2.878 5.803 6.429 5.803h47.143c3.551 0 6.429-2.25 6.429-5.804v-47.144zM51.25 77.5h-8.75v-15h8.75v15zM63.75 77.5h-7.5v-23.75h7.5v23.75zM77.5 77.5h-8.75v-32.5h8.75v32.5z"></path>
</g>
<g id="icon-New">
	<path class="path1" d="M90 64.286h-25.714v25.714h-8.572v-25.714h-25.714v-8.572h25.714v-25.714h8.572v25.714h25.714z"></path>
</g>
<g id="icon-News">
	<path class="path1" d="M84.493 37.292l-5.34-5.357-4.565 4.641-4.526-4.641-4.847 4.999-4.836-4.999-5.177 5.357-5.177-5.357-5.174 5.357-5.175-5.357-4.836 5.357-4.837-5.356v51.429c0 3.55 2.207 4.135 5.759 4.135h47.143c3.551 0 7.099-0.585 7.099-4.136v-51.429l-5.507 5.357zM57.5 78.75h-21.25v-22.5h21.25v22.5zM83.75 78.75h-21.25v-3.75h21.25v3.75zM83.75 72.5h-21.25v-3.75h21.25v3.75zM83.75 66.25h-21.25v-3.75h21.25v3.75zM83.75 60h-21.25v-3.75h21.25v3.75zM83.75 51.25h-47.5v-6.25h47.5v6.25z"></path>
</g>
<g id="icon-Next">
	<path class="path1" d="M30 80.571l29.143-20.571-29.143-20.571v41.143zM60.857 39.429v41.143l29.143-20.571-29.143-20.571z"></path>
</g>
<g id="icon-Overflow-Horizontal">
	<path class="path1" d="M37.5 52.5c-4.14 0-7.5 3.36-7.5 7.5 0 4.142 3.36 7.5 7.5 7.5 4.144 0 7.5-3.358 7.5-7.5 0-4.14-3.356-7.5-7.5-7.5zM82.5 52.5c-4.14 0-7.5 3.36-7.5 7.5 0 4.142 3.36 7.5 7.5 7.5 4.142 0 7.5-3.358 7.5-7.5 0-4.14-3.358-7.5-7.5-7.5zM60 52.5c-4.14 0-7.5 3.36-7.5 7.5 0 4.142 3.36 7.5 7.5 7.5 4.142 0 7.5-3.358 7.5-7.5 0-4.14-3.358-7.5-7.5-7.5z"></path>
</g>
<g id="icon-Overflow-Vertical">
	<path class="path1" d="M60 45c4.145 0 7.5-3.355 7.5-7.5 0-4.139-3.355-7.5-7.5-7.5-4.139 0-7.5 3.361-7.5 7.5 0 4.145 3.361 7.5 7.5 7.5zM60 52.5c-4.139 0-7.5 3.361-7.5 7.5 0 4.145 3.361 7.5 7.5 7.5 4.145 0 7.5-3.355 7.5-7.5 0-4.139-3.355-7.5-7.5-7.5zM60 75c-4.139 0-7.5 3.361-7.5 7.5 0 4.145 3.361 7.5 7.5 7.5 4.145 0 7.5-3.355 7.5-7.5 0-4.139-3.355-7.5-7.5-7.5z"></path>
</g>
<g id="icon-Paste">
	<path class="path1" d="M72.5 90h5v-5h-5v5zM82.5 55v5h5c0-2.76-2.236-5-5-5zM52.5 70h5v-5h-5v5zM57.5 90v-5h-5c0 2.764 2.237 5 5 5zM62.5 90h5v-5h-5v5zM52.5 60h5v-5c-2.762 0-5 2.24-5 5zM82.5 80h5v-5h-5v5zM82.5 70h5v-5h-5v5zM82.5 90c2.764 0 5-2.236 5-5h-5v5zM72.5 35h-10.46c-1.031-2.905-3.779-5-7.040-5-3.259 0-6.008 2.095-7.040 5h-10.46c-2.762 0-5 2.237-5 5v35c0 2.764 2.237 5 5 5h35c2.764 0 5-2.236 5-5v-35c0-2.762-2.236-5-5-5zM55 35c1.38 0 2.5 1.119 2.5 2.5s-1.12 2.5-2.5 2.5c-1.38 0-2.5-1.119-2.5-2.5s1.12-2.5 2.5-2.5zM72.5 75h-35v-35h5v5h25v-5h5v35zM62.5 60h5v-5h-5v5z"></path>
</g>
<g id="icon-Pause">
	<path class="path1" d="M34.286 90h17.143v-60h-17.143v60zM68.571 90h17.143v-60h-17.143v60z"></path>
</g>
<g id="icon-Phone-Down">
	<path class="path1" d="M89.287 60.431l-3.448-3.445c-12.136-12.135-41.266-10.415-51.679 0l-3.448 3.445c-0.951 0.953-0.951 2.496 0 3.445l6.892 6.891c0.953 0.953 2.492 0.953 3.445 0l6.44-6.439v-9.092c2.431-2.431 22.626-2.431 25.057 0v9.131l6.401 6.4c0.953 0.953 2.492 0.953 3.445 0l6.892-6.891c0.949-0.949 0.949-2.492 0-3.445z"></path>
</g>
<g id="icon-Phone">
	<path class="path1" d="M42.080 55.984c4.802 9.436 12.519 17.147 21.958 21.949l6.94-6.955c0.605-0.606 1.439-0.977 2.356-0.977h13.333c1.843 0 3.334 1.49 3.334 3.332v13.334c0 1.843-1.491 3.332-3.334 3.332-31.295 0-56.666-25.37-56.666-56.665 0-1.843 1.494-3.334 3.334-3.334h13.333c1.844 0 3.334 1.491 3.334 3.334v13.333c0 0.917-0.37 1.751-0.974 2.356l-6.946 6.961z"></path>
</g>
<g id="icon-Picasa">
	<path class="path1" d="M82.412 79.899c4.909-5.498 7.588-12.466 7.588-19.899 0-1.745-0.172-3.541-0.51-5.357h-21.509l14.431 25.256z"></path>
	<path class="path2" d="M70.116 31.768l-10.765 18.645 29.093 0.129c-2.894-8.71-9.665-15.669-18.328-18.774z"></path>
	<path class="path3" d="M66.039 30.617c-1.988-0.41-4.009-0.617-6.039-0.617-7.135 0-13.954 2.524-19.386 7.141l10.756 18.631 14.669-25.155z"></path>
	<path class="path4" d="M30 60c0 1.746 0.167 3.541 0.506 5.357l21.516 0.001-14.435-25.258c-4.913 5.496-7.588 12.465-7.588 19.899z"></path>
	<path class="path5" d="M49.884 88.234l10.769-18.645-29.1-0.129c2.893 8.71 9.664 15.669 18.331 18.774z"></path>
	<path class="path6" d="M53.96 89.385c1.989 0.407 4.010 0.615 6.040 0.615 7.136 0 13.954-2.524 19.382-7.14l-10.753-18.629-14.67 25.154z"></path>
</g>
<g id="icon-Plane">
	<path class="path1" d="M90 60c0-2.483-2.014-4.501-4.498-4.501h-16.501l-15-23.998h-6.002l7.5 23.998h-16.498l-4.501-5.999h-4.5l2.999 10.5-2.999 10.502h4.501l4.501-6.002h16.498l-7.5 23.998h6.002l15-23.998h16.501c2.482 0.001 4.496-2.018 4.496-4.5z"></path>
</g>
<g id="icon-Play">
	<path class="path1" d="M36.25 30v60l48.571-30z"></path>
</g>
<g id="icon-Presentation">
	<path class="path1" d="M83.316 30h-46.666c-3.681 0-6.634 2.985-6.634 6.666v46.666c0 3.681 2.953 6.666 6.634 6.666h46.666c3.681 0 6.667-2.985 6.667-6.666v-46.666c0-3.681-2.985-6.666-6.667-6.666zM83.316 71.666c0 0.917-0.749 1.667-1.666 1.667h-43.333c-0.92 0-1.666-0.75-1.666-1.667v-23.333c0-0.917 0.748-1.666 1.666-1.666h43.333c0.917 0 1.666 0.749 1.666 1.666v23.333z"></path>
</g>
<g id="icon-Previous">
	<path class="path1" d="M59.143 80.571v-41.143l-29.143 20.571 29.143 20.571zM60.857 60l29.143 20.571v-41.143l-29.143 20.571z"></path>
</g>
<g id="icon-Print">
	<path class="path1" d="M81 48h-42c-4.967 0-9 4.031-9 9v18h12v12h36v-12h12v-18c0-4.971-4.029-9-9-9zM72 81h-24v-15h24v15zM81 60c-1.657 0-2.999-1.341-2.999-3s1.341-3 2.999-3c1.659 0 3 1.341 3 3s-1.341 3-3 3zM78 33h-36v12h36v-12z"></path>
</g>
<g id="icon-QuickReply">
	<path class="path1" d="M47.5 48.75v-7.5l-17.5 17.5 17.5 17.5v-7.5l-10-10 10-10zM62.5 51.25v-10l-17.5 17.5 17.5 17.5v-10.249c12.5 0 21.25 3.999 27.5 12.749-2.5-12.5-10-25-27.5-27.5z"></path>
</g>
<g id="icon-RadioSelected">
	<path class="path1" d="M60 45c-8.285 0-15 6.715-15 15s6.715 15 15 15 15-6.715 15-15-6.715-15-15-15zM60 30c-16.57 0-30 13.43-30 30s13.43 30 30 30c16.57 0 30-13.43 30-30s-13.43-30-30-30zM60 84c-13.254 0-24-10.746-24-24s10.746-24 24-24c13.255 0 24 10.746 24 24 0 13.255-10.745 24-24 24z"></path>
</g>
<g id="icon-RadioUnselected">
	<path class="path1" d="M60 30c-16.57 0-30 13.43-30 30s13.43 30 30 30c16.57 0 30-13.43 30-30s-13.43-30-30-30zM60 84c-13.254 0-24-10.746-24-24s10.746-24 24-24c13.255 0 24 10.746 24 24 0 13.255-10.745 24-24 24z"></path>
</g>
<g id="icon-Radio">
	<path class="path1" d="M90 48c0-3.316-2.683-6-6-6h-35.090l17.090-7.011-2.068-4.989-30.223 12.454c-2.179 0.844-3.71 3.041-3.71 5.546v36c0 3.316 2.685 6 6 6h48c3.316 0 6-2.683 6-6v-36zM45 84c-4.97 0-9-4.029-9-9s4.030-9 9-9c4.973 0 9 4.029 9 9s-4.027 9-9 9zM84 60h-48v-12h48v12z"></path>
</g>
<g id="icon-Reorder">
	<path class="path1" d="M40 90h40v-10h-40v10zM40 65h40v-10h-40v10zM40 40h40v-10h-40v10z"></path>
</g>
<g id="icon-Replay">
	<path class="path1" d="M81.167 38.815c-5.424-5.435-12.899-8.815-21.186-8.815-16.567 0-29.964 13.433-29.964 30s13.396 30 29.964 30c13.967 0 25.656-9.569 28.996-22.5h-7.815c-3.088 8.737-11.389 15-21.181 15-12.429 0-22.5-10.071-22.5-22.5s10.071-22.5 22.5-22.5c6.215 0 11.774 2.578 15.839 6.658l-12.089 12.092h26.25v-26.25l-8.814 8.815z"></path>
</g>
<g id="icon-Reply">
	<path class="path1" d="M51 37.5l-21 21 21 21v-12c35.889 0 39 15 39 15s-2.859-33-39-33v-12z"></path>
</g>
<g id="icon-Ribbon">
	<path class="path1" d="M76.665 30h-33.332c-3.681 0-6.631 2.981-6.631 6.666l-0.035 53.334 23.334-10 23.334 10v-53.334c-0.001-3.685-2.987-6.666-6.669-6.666z"></path>
</g>
<g id="icon-RightAlign">
	<path class="path1" d="M30 90h60v-6.666h-60v6.666zM50 76.666h40v-6.666h-40v6.666zM30 63.334h60v-6.666h-60v6.666zM50 50h40v-6.666h-40v6.666zM30 36.666h60v-6.666h-60v6.666z"></path>
</g>
<g id="icon-RightCaret">
	<path class="path1" d="M48.535 30l-7.070 7.070 22.93 22.93-22.93 22.93 7.070 7.070 30-30z"></path>
</g>
<g id="icon-Scissors">
	<path class="path1" d="M56.531 69.109c0.827-0.994 2.072-1.63 3.469-1.63 1.391 0 2.639 0.636 3.464 1.63l4.101 4.939c-0.974 1.595-1.565 3.449-1.565 5.453 0 5.799 4.7 10.5 10.5 10.5s10.499-4.703 10.499-10.5c0-5.801-4.699-10.499-10.499-10.499-1.319 0-2.567 0.272-3.726 0.711l-5.947-7.163 14.749-17.762c3.709-4.462 3.094-11.080-1.366-14.786l-32.986 39.71c-1.16-0.439-2.409-0.711-3.722-0.711-5.799 0-10.5 4.699-10.5 10.499 0 5.799 4.701 10.5 10.5 10.5 5.8 0 10.5-4.703 10.5-10.5 0-2.004-0.595-3.857-1.566-5.451l4.097-4.939zM44.325 83.924c-2.443 0.457-4.795-1.154-5.25-3.598-0.455-2.443 1.154-4.792 3.598-5.25 2.445-0.456 4.793 1.155 5.25 3.599 0.455 2.44-1.156 4.791-3.598 5.249zM60 65.25c-1.245 0-2.25-1.009-2.25-2.25 0-1.243 1.005-2.25 2.25-2.25 1.243 0 2.25 1.007 2.25 2.25s-1.007 2.25-2.25 2.25zM76.5 84c-2.484 0-4.501-2.015-4.501-4.501 0-2.484 2.016-4.5 4.501-4.5s4.5 2.015 4.5 4.5c0 2.486-2.015 4.501-4.5 4.501zM50.25 59.027l6.75-8.027-17.209-21c-4.46 3.706-5.076 10.324-1.37 14.786l11.829 14.241z"></path>
</g>
<g id="icon-Search">
	<path class="path1" d="M72.889 67.733h-2.725l-0.944-0.939c3.346-3.901 5.376-8.956 5.376-14.498 0-12.315-9.982-22.299-22.297-22.299s-22.299 9.984-22.299 22.299c0 12.314 9.984 22.296 22.297 22.296 5.541 0 10.592-2.030 14.492-5.374l0.949 0.945v2.714l17.145 17.125 5.116-5.119-17.111-17.151zM52.297 67.733c-8.526 0-15.437-6.91-15.437-15.436s6.911-15.437 15.437-15.437 15.437 6.911 15.437 15.437-6.911 15.436-15.437 15.436z"></path>
</g>
<g id="icon-Send">
	<path class="path1" d="M30.028 85.714l59.972-25.714-59.972-25.714-0.028 20 42.857 5.714-42.857 5.714z"></path>
</g>
<g id="icon-Settings">
	<path class="path1" d="M83.306 59.606c0-1.198-0.116-2.361-0.29-3.509l6.919-3.994-8.485-14.696-6.759 3.986c-1.825-1.459-4.691-2.644-5.941-3.51v-7.884h-17.5v7.884c-1.25 0.866-4.14 2.051-5.964 3.51l-6.849-3.986-8.458 14.696 6.935 3.994c-0.174 1.147-0.285 2.311-0.285 3.509 0 1.194 0.122 2.357 0.294 3.505l-6.915 3.994 8.484 14.696 6.788-3.986c1.824 1.464 4.72 2.644 5.97 3.51v8.675h17.5v-8.675c1.25-0.865 4.116-2.046 5.942-3.51l6.831 3.986 8.447-14.696-6.938-3.994c0.172-1.148 0.272-2.311 0.272-3.505zM59.972 70.213c-5.859 0-10.606-4.748-10.606-10.606s4.747-10.606 10.606-10.606c5.858 0 10.605 4.747 10.605 10.606s-4.749 10.606-10.605 10.606z"></path>
</g>
<g id="icon-Share">
	<path class="path1" d="M90 58.334l-23.334-23.334v13.334c-23.333 3.332-33.332 20-36.666 36.666 8.334-11.666 20-16.999 36.666-16.999v13.665l23.334-23.333z"></path>
</g>
<g id="icon-Shuffle">
	<path class="path1" d="M54.697 49.395l-19.395-19.395-5.303 5.303 19.395 19.395 5.302-5.302zM69.375 30l7.661 7.661-47.036 47.036 5.303 5.303 47.036-47.036 7.661 7.661v-20.625h-20.625zM70.605 65.303l-5.303 5.303 11.734 11.734-7.661 7.661h20.625v-20.625l-7.661 7.661-11.734-11.734z"></path>
</g>
<g id="icon-Sort">
	<path class="path1" d="M30 41.25h60v7.5h-60v-7.5z"></path>
	<path class="path2" d="M30 56.25h41.25v7.5h-41.25v-7.5z"></path>
	<path class="path3" d="M30 71.25h21.25v7.5h-21.25v-7.5z"></path>
</g>
<g id="icon-Spam">
	<path class="path1" d="M72.427 30h-24.856l-17.571 17.574v24.855l17.571 17.571h24.856l17.573-17.573v-24.854l-17.573-17.574zM60 77.666c-2.39 0-4.333-1.94-4.333-4.333 0-2.39 1.944-4.334 4.333-4.334s4.333 1.944 4.333 4.334c0 2.392-1.944 4.333-4.333 4.333zM63.334 63.334h-6.666v-20h6.666v20z"></path>
</g>
<g id="icon-Speaker">
	<path class="path1" d="M30 50v20h13.334l16.666 16.666v-53.332l-16.666 16.666h-13.334zM75 60c0-5.885-3.399-10.964-8.334-13.425v26.849c4.935-2.46 8.334-7.539 8.334-13.424zM66.666 30.769v6.875c9.636 2.871 16.667 11.79 16.667 22.356s-7.031 19.486-16.667 22.358v6.875c13.358-3.037 23.334-14.959 23.334-29.233s-9.976-26.198-23.334-29.231z"></path>
</g>
<g id="icon-Spreadsheet">
	<path class="path1" d="M83.334 30h-46.667c-3.681 0-6.632 2.985-6.632 6.666l-0.026 10h-0.008v36.666c0 3.682 2.985 6.667 6.666 6.667h46.666c3.682 0 6.667-2.985 6.667-6.666v-46.667c0-3.681-2.985-6.666-6.666-6.666zM83.334 56.666h-26.668v26.666h-6.666v-26.666h-13.334v-6.666h13.334v-13.334h6.666v13.334h26.666v6.666z"></path>
</g>
<g id="icon-StarEmpty">
	<path class="path1" d="M60 45.339l4.723 11.146 12.081 1.034-9.166 7.943 2.745 11.811-10.382-6.263-10.382 6.264 2.745-11.811-9.166-7.943 12.083-1.034 4.721-11.147zM60 31.5l-8.426 19.88-21.574 1.852 16.365 14.18-4.904 21.088 18.539-11.18 18.539 11.18-4.904-21.088 16.365-14.18-21.575-1.851-8.425-19.881z"></path>
</g>
<g id="icon-Star">
	<path class="path1" d="M60 77.317l18.539 11.182-4.904-21.088 16.365-14.18-21.575-1.852-8.425-19.88-8.428 19.88-21.572 1.852 16.365 14.18-4.906 21.088z"></path>
</g>
<g id="icon-Stop">
	<path class="path1" d="M90 35.614c0-3.975-2.761-5.614-6.739-5.614h-45.6c-3.977 0-7.661 1.639-7.661 5.614v45.6c0 3.98 3.684 8.786 7.661 8.786h45.6c3.977 0 6.739-4.806 6.739-8.785v-45.601z"></path>
</g>
<g id="icon-Stopwatch">
	<path class="path1" d="M85.712 64.288h-2.858c-0.001 6.319-2.554 12.015-6.694 16.161-4.145 4.14-9.841 6.692-16.161 6.694-6.315-0.001-12.011-2.554-16.159-6.695-4.142-4.145-6.696-9.841-6.697-16.16 0.001-6.317 2.556-12.015 6.699-16.161 4.147-4.142 9.844-6.696 16.157-6.697 6.32 0.001 12.015 2.555 16.161 6.696 4.14 4.146 6.692 9.844 6.694 16.163h5.714c-0.001-15.778-12.79-28.571-28.569-28.574-15.771 0.004-28.568 12.796-28.57 28.574 0.002 15.779 12.799 28.566 28.57 28.57 15.779-0.002 28.567-12.793 28.569-28.57h-2.856z"></path>
	<path class="path2" d="M51.429 32.858h17.143v-5.715h-17.143z"></path>
	<path class="path3" d="M57.142 47.143v22.858h5.715v-22.858z"></path>
	<path class="path4" d="M82.249 37.996l-6.122 6.122 4.041 4.040 6.121-6.122z"></path>
</g>
<g id="icon-Storage">
	<path class="path1" d="M30 81h60v-12h-60v12zM36 72h6v6h-6v-6zM30 51h60v-12h-60v12zM42 48h-6v-6h6v6zM30 66h60v-12h-60v12zM36 57h6v6h-6v-6z"></path>
</g>
<g id="icon-Tag">
	<path class="path1" d="M30 57c0.002 1.659 0.674 3.155 1.757 4.243v0.002l27.011 26.998c1.085 1.084 2.585 1.757 4.243 1.757 1.659 0 3.157-0.674 4.243-1.755l20.983-20.985c1.090-1.085 1.764-2.59 1.764-4.249 0-1.657-0.671-3.157-1.757-4.243l-27-27.011c-1.090-1.082-2.587-1.755-4.243-1.757h-27v27zM40.5 45c-2.484 0-4.5-2.015-4.5-4.5 0-2.484 2.016-4.5 4.5-4.5 2.485 0 4.5 2.016 4.5 4.5 0 2.485-2.015 4.5-4.5 4.5z"></path>
</g>
<g id="icon-TextStyle">
	<path class="path1" d="M48.394 66.25h23.981l3.661 7.5h7.828l-20.87-43.75h-5.218l-20.87 43.75h7.826l3.661-7.5zM60.385 37.919l9.709 19.581h-19.418l9.709-19.581z"></path>
	<path class="path2" d="M31.25 81.25h57.5v8.75h-57.5v-8.75z"></path>
</g>
<g id="icon-ThumbsDown">
	<path class="path1" d="M79.090 32.728h10.91v32.728h-10.91v-32.728z"></path>
	<path class="path2" d="M44.454 32.728h23.729c3.011 0 5.454 2.443 5.454 5.455v27.741c0 1.446-0.575 2.835-1.597 3.857l-17.494 17.491c0 0-5.454-1.305-5.454-6.411 0-1.979 3.556-12.68 3.556-12.68h-17.192c-3.013 0-5.455-2.443-5.455-5.455v-3.646c0-1.194 0.25-2.37 0.734-3.46l8.736-19.655c0.874-1.967 2.827-3.238 4.984-3.238z"></path>
</g>
<g id="icon-ThumbsUp">
	<path class="path1" d="M30 54.545h10.909v32.728h-10.909v-32.728z"></path>
	<path class="path2" d="M75.546 87.272h-23.728c-3.013 0-5.455-2.443-5.455-5.455v-27.741c0-1.446 0.575-2.834 1.597-3.856l17.492-17.494c0 0 5.455 1.305 5.455 6.411 0 1.979-3.559 12.68-3.559 12.68h17.195c3.011 0 5.454 2.443 5.454 5.455v3.646c0 1.194-0.25 2.371-0.735 3.46l-8.736 19.656c-0.871 1.967-2.828 3.238-4.981 3.238z"></path>
</g>
<g id="icon-Ticket">
	<path class="path1" d="M89.999 54v-12c0-3.31-2.686-6-6-6h-47.999c-3.315 0-6 2.69-6 6v12c3.311 0 6 2.689 6 6 0 3.316-2.687 6-6 6v12c0 3.315 2.685 6 6 6h47.999c3.313 0 6-2.684 6-6v-12c-3.313 0-6-2.683-6-6 0-3.31 2.687-6 6-6zM69.392 73.5l-9.392-5.665-9.396 5.665 2.488-10.681-8.091-7.319 10.73-0.809 4.27-9.691 4.27 9.691 10.729 0.809-8.093 7.319 2.486 10.681z"></path>
</g>
<g id="icon-Trash">
	<path class="path1" d="M40 83.334c0 3.684 2.989 6.666 6.666 6.666h26.666c3.685 0 6.668-2.983 6.668-6.666v-40h-40v40zM80 33.334h-8.334l-3.332-3.334h-16.667l-3.334 3.334h-8.332c-1.843 0-3.334 1.491-3.334 3.334v3.332h46.666v-3.334c0.001-1.843-1.493-3.332-3.332-3.332z"></path>
</g>
<g id="icon-Twitter">
	<path class="path1" d="M84 30.001h-48c-3.311 0-5.97 2.685-5.97 6l-0.030 48c0 3.311 2.687 6 6 6h48c3.311 0 6-2.687 6-6v-48c0-3.315-2.687-6-6-6zM77.124 51.99c-0.191 13.858-9.051 23.35-22.274 23.947-5.455 0.245-9.411-1.51-12.85-3.698 4.031 0.646 9.026-0.965 11.705-3.257-3.954-0.388-6.287-2.396-7.391-5.631 1.14 0.201 2.342 0.149 3.433-0.085-3.564-1.198-6.111-3.4-6.249-8.016 1.005 0.456 2.049 0.885 3.433 0.965-2.674-1.517-4.637-7.065-2.379-10.74 3.962 4.348 8.729 7.888 16.551 8.368-1.963-8.39 9.172-12.945 13.824-7.305 1.97-0.381 3.568-1.125 5.105-1.941-0.63 1.952-1.853 3.313-3.345 4.408 1.63-0.223 3.084-0.621 4.314-1.234-0.756 1.589-2.439 3.020-3.876 4.22z"></path>
</g>
<g id="icon-Typing">
	<path class="path1" d="M84.181 31.25h-47.586c-3.429 0-6.595 1.027-6.595 4.454v53.794l12.801-10.748h41.38c3.429 0 5.819-4.444 5.819-7.874v-35.173c0-3.426-2.39-4.454-5.819-4.454zM49.009 58.462c-2.285 0-4.139-1.85-4.139-4.138 0-2.284 1.852-4.139 4.139-4.139s4.138 1.855 4.138 4.139c0 2.288-1.852 4.138-4.138 4.138zM61.423 58.462c-2.285 0-4.138-1.85-4.138-4.138 0-2.284 1.852-4.139 4.138-4.139s4.139 1.855 4.139 4.139c-0.001 2.288-1.854 4.138-4.139 4.138zM73.836 58.462c-2.285 0-4.139-1.85-4.139-4.138 0-2.284 1.853-4.139 4.139-4.139s4.138 1.855 4.138 4.139c0 2.288-1.852 4.138-4.138 4.138z"></path>
</g>
<g id="icon-Underline">
	<path class="path1" d="M60 76.666c11.041 0 20-8.957 20-20v-26.666h-8.334v26.666c0 6.444-5.225 11.666-11.666 11.666-6.443 0-11.666-5.224-11.666-11.666v-26.666h-8.334v26.666c0 11.042 8.959 20 20 20zM36.666 90h46.666v-6.666h-46.666v6.666z"></path>
</g>
<g id="icon-Undo">
	<path class="path1" d="M42.429 58.266l-5.865-2.42c-0.954 2.684-1.41 6.654-1.417 7.904h6.254c0.008-1.25 0.316-3.478 1.029-5.484z"></path>
	<path class="path2" d="M42.418 70h-6.501c0.876 5 2.515 7.382 4.801 10.216l4.926-4.105c-1.423-1.735-2.507-1.111-3.226-6.111z"></path>
	<path class="path3" d="M45.299 85.237c3.291 2.432 5.951 3.964 10.951 4.573v-6.335c-2.5-0.421-3.932-1.164-5.722-2.229l-5.229 3.991z"></path>
	<path class="path4" d="M77.638 47.611c-5.359-5.359-12.551-7.777-19.574-7.226l0.495-10.385-16.141 16.144 2.953 2.951 2.095 2.303c0.036-0.032 0.077-0.061 0.114-0.094l9.512 9.512 0.674-14.13c5.511-0.673 11.251 1.106 15.471 5.326 7.281 7.284 7.328 19.131 0.047 26.415-3.040 3.036-7.034 4.795-10.784 5.295v6.278c6.25-0.531 10.935-2.919 15.185-7.17 9.71-9.712 9.662-25.511-0.047-35.219z"></path>
</g>
<g id="icon-Up-downCarets">
	<path class="path1" d="M60.002 39.7l11.287 11.29 4.85-4.85-16.138-16.14-16.14 16.14 4.85 4.85z"></path>
	<path class="path2" d="M60 80.3l-11.29-11.29-4.85 4.85 16.14 16.14 16.14-16.14-4.85-4.85z"></path>
</g>
<g id="icon-Upload_">
	<path class="path1" d="M60 30.25l-18 24h12v24h12v-24h12z"></path>
</g>
<g id="icon-Upload">
	<path class="path1" d="M78.389 55.090c-1.704-8.604-9.287-15.090-18.389-15.090-7.23 0-13.492 4.096-16.62 10.090-7.521 0.811-13.38 7.175-13.38 14.91 0 8.286 6.718 15 15 15h32.5c6.904 0 12.5-5.596 12.5-12.5 0-6.599-5.131-11.949-11.611-12.41zM65 62.5v10h-10v-10h-7.5l12.5-12.5 12.5 12.5h-7.5z"></path>
</g>
<g id="icon-Usage-Pie">
	<path class="path1" d="M63 30.077v9.089c9 1.459 18 10.183 18 20.759 0 2.689-0.524 5.249-1.446 7.61l7.804 4.6c1.67-3.731 2.642-7.851 2.642-12.21 0-15.55-12-28.335-27-29.848zM60 80.924c-11.601 0-21-9.399-21-20.999 0-10.576 9-19.3 18-20.759v-9.091c-15 1.498-27 14.291-27 29.85 0 16.569 13.404 29.999 29.985 29.999 9.929 0 18.706-4.84 24.17-12.264l-7.786-4.595c-3.85 4.789-9.745 7.859-16.369 7.859z"></path>
</g>
<g id="icon-User">
	<path class="path1" d="M60 60c8.28 0 15-6.724 15-15 0-8.28-6.72-15-15-15s-15 6.72-15 15c0 8.276 6.72 15 15 15zM60 67.5c-10.001 0-30 5.006-30 15v7.5h60v-7.5c0-9.994-19.999-15-30-15z"></path>
</g>
<g id="icon-UsersGroup">
	<path class="path1" d="M51.819 50.455c0-4.519 3.662-8.181 8.181-8.181 4.52 0 8.182 3.664 8.182 8.181s-3.662 8.181-8.182 8.181c-4.52 0-8.181-3.662-8.181-8.181zM60 64.090c-12.43 0-16.364 9.092-16.364 9.092v4.544h32.728v-4.544c0 0.001-3.934-9.092-16.364-9.092z"></path>
	<path class="path2" d="M84.545 49.091c0 3.765-3.052 6.818-6.817 6.818s-6.818-3.052-6.818-6.818c0-3.765 3.052-6.817 6.818-6.817s6.817 3.052 6.817 6.817z"></path>
	<path class="path3" d="M77.728 61.364c-3.347 0-5.86 0.943-7.724 2.144 6.355 3.040 8.728 8.281 8.864 8.593l0.075 0.174h11.057v-3.639c0-0.001-2.95-7.271-12.272-7.271z"></path>
	<path class="path4" d="M49.090 49.091c0 3.765-3.052 6.818-6.818 6.818s-6.817-3.052-6.817-6.818c0-3.765 3.052-6.817 6.817-6.817s6.818 3.052 6.818 6.817z"></path>
	<path class="path5" d="M42.272 61.364c3.347 0 5.86 0.943 7.724 2.144-6.354 3.040-8.728 8.281-8.864 8.593l-0.075 0.174h-11.057v-3.639c0-0.001 2.951-7.271 12.272-7.271z"></path>
</g>
<g id="icon-Users">
	<path class="path1" d="M70.91 57.272c4.519 0 8.154-3.665 8.154-8.181 0-4.517-3.635-8.182-8.154-8.182-4.517 0-8.182 3.665-8.182 8.182 0 4.516 3.664 8.181 8.182 8.181zM49.091 57.272c4.52 0 8.155-3.665 8.155-8.181 0-4.517-3.635-8.182-8.155-8.182-4.519 0-8.182 3.665-8.182 8.182 0 4.516 3.664 8.181 8.182 8.181zM49.091 62.728c-6.364 0-19.091 3.185-19.091 9.545v6.818h38.182v-6.818c0-6.36-12.727-9.545-19.091-9.545zM70.91 62.728c-0.791 0-1.684 0.047-2.631 0.149 3.159 2.28 5.359 5.351 5.359 9.397v6.818h16.363v-6.818c0-6.361-12.726-9.546-19.090-9.546z"></path>
</g>
<g id="icon-VideoCamera">
	<path class="path1" d="M90 41.62l-15 14.15v-10.123c0-2.76-3.43-3.148-6.191-3.148h-35c-2.761 0-3.809 0.388-3.809 3.149v27.499c0 2.764 1.048 6.853 3.809 6.853h35c2.761 0 6.191-4.089 6.191-6.853v-10.991l15 14.145v-34.681z"></path>
</g>
<g id="icon-Walking">
	<path class="path1" d="M64.129 39.907c2.731 0 4.954-2.22 4.954-4.95 0-2.741-2.222-4.956-4.954-4.956-2.739 0-4.954 2.215-4.954 4.956 0 2.73 2.214 4.95 4.954 4.95zM64.453 56.972h13.436v-4.954h-9.969l-5.505-9.167c-0.814-1.374-2.311-2.293-4.022-2.293-0.47 0-0.925 0.069-1.352 0.199l-14.93 4.655v14.312h4.952v-10.093l5.797-1.806-10.75 42.174h4.952l7.896-22.314 6.415 8.552v13.761h4.954v-17.631l-6.85-12.495 2.017-7.891 2.957 4.99z"></path>
</g>
<g id="icon-Warning">
	<path class="path1" d="M30 86.471h60l-30-52.941-30 52.941zM63.529 79.411h-7.059v-7.058h7.059v7.058zM63.529 68.824h-7.059v-14.117h7.059v14.117z"></path>
</g>
<g id="icon-Wifi">
	<path class="path1" d="M84.085 54.149l5.915-7.336c-17.415-14.416-42.586-14.416-60 0l5.915 7.329c6.565-5.431 14.95-8.698 24.085-8.698 9.126-0.001 17.511 3.265 24.085 8.705zM52.284 74.431l7.716 9.569 7.718-9.559c-2.078-1.885-4.775-3.028-7.718-3.028-2.95 0-5.64 1.142-7.716 3.017zM44.645 64.974l6.24 7.735c2.464-2.218 5.634-3.568 9.115-3.568 3.471 0 6.65 1.35 9.111 3.568l6.242-7.735c-4.194-3.465-9.536-5.552-15.354-5.552-5.821 0-11.169 2.087-15.355 5.552zM60 47.687c-8.605 0-16.5 3.077-22.69 8.196l5.921 7.33c4.574-3.784 10.409-6.065 16.77-6.065 6.351 0 12.194 2.281 16.77 6.065l5.909-7.33c-6.189-5.119-14.084-8.196-22.68-8.196z"></path>
</g>
</defs>

<g fill="#000000">
	<use xlink:href="#icon-Cake" transform="translate(0 0)"></use>
	<use xlink:href="#icon-Alarm" transform="translate(136 0)"></use>
	<use xlink:href="#icon-AppDrawer" transform="translate(272 0)"></use>
	<use xlink:href="#icon-Apple" transform="translate(408 0)"></use>
	<use xlink:href="#icon-Arrows-Bidirectional" transform="translate(544 0)"></use>
	<use xlink:href="#icon-BackArrow" transform="translate(680 0)"></use>
	<use xlink:href="#icon-Ball" transform="translate(816 0)"></use>
	<use xlink:href="#icon-Basket" transform="translate(952 0)"></use>
	<use xlink:href="#icon-Battery" transform="translate(1088 0)"></use>
	<use xlink:href="#icon-Bell-Notificationsoff" transform="translate(1224 0)"></use>
	<use xlink:href="#icon-Bell-Notificationson" transform="translate(1360 0)"></use>
	<use xlink:href="#icon-Bluetooth" transform="translate(1496 0)"></use>
	<use xlink:href="#icon-Bold" transform="translate(1632 0)"></use>
	<use xlink:href="#icon-Bookmark" transform="translate(1768 0)"></use>
	<use xlink:href="#icon-Briefcase" transform="translate(1904 0)"></use>
	<use xlink:href="#icon-Brightness" transform="translate(2040 0)"></use>
	<use xlink:href="#icon-Bus" transform="translate(0 136)"></use>
	<use xlink:href="#icon-Calendar" transform="translate(136 136)"></use>
	<use xlink:href="#icon-Camera" transform="translate(272 136)"></use>
	<use xlink:href="#icon-Cancel-Circle" transform="translate(408 136)"></use>
	<use xlink:href="#icon-Cancel" transform="translate(544 136)"></use>
	<use xlink:href="#icon-Car" transform="translate(680 136)"></use>
	<use xlink:href="#icon-Cart" transform="translate(816 136)"></use>
	<use xlink:href="#icon-CenterAlign" transform="translate(952 136)"></use>
	<use xlink:href="#icon-Chat" transform="translate(1088 136)"></use>
	<use xlink:href="#icon-Check-2" transform="translate(1224 136)"></use>
	<use xlink:href="#icon-Check-Circle" transform="translate(1360 136)"></use>
	<use xlink:href="#icon-Check" transform="translate(1496 136)"></use>
	<use xlink:href="#icon-Checkbox-Empty" transform="translate(1632 136)"></use>
	<use xlink:href="#icon-Checkbox-Full" transform="translate(1768 136)"></use>
	<use xlink:href="#icon-Clip" transform="translate(1904 136)"></use>
	<use xlink:href="#icon-Clipboard" transform="translate(2040 136)"></use>
	<use xlink:href="#icon-Clock" transform="translate(0 272)"></use>
	<use xlink:href="#icon-Closed" transform="translate(136 272)"></use>
	<use xlink:href="#icon-CloudDownload" transform="translate(272 272)"></use>
	<use xlink:href="#icon-CloudUpload" transform="translate(408 272)"></use>
	<use xlink:href="#icon-Cloud-Check" transform="translate(544 272)"></use>
	<use xlink:href="#icon-Cloud" transform="translate(680 272)"></use>
	<use xlink:href="#icon-Color-Fill" transform="translate(816 272)"></use>
	<use xlink:href="#icon-Columns" transform="translate(952 272)"></use>
	<use xlink:href="#icon-Comments" transform="translate(1088 272)"></use>
	<use xlink:href="#icon-Compass" transform="translate(1224 272)"></use>
	<use xlink:href="#icon-Contact" transform="translate(1360 272)"></use>
	<use xlink:href="#icon-Copy" transform="translate(1496 272)"></use>
	<use xlink:href="#icon-CreditCard" transform="translate(1632 272)"></use>
	<use xlink:href="#icon-Cycling" transform="translate(1768 272)"></use>
	<use xlink:href="#icon-DataUsage" transform="translate(1904 272)"></use>
	<use xlink:href="#icon-Directions" transform="translate(2040 272)"></use>
	<use xlink:href="#icon-Document" transform="translate(0 408)"></use>
	<use xlink:href="#icon-DownArrow" transform="translate(136 408)"></use>
	<use xlink:href="#icon-Download" transform="translate(272 408)"></use>
	<use xlink:href="#icon-Drawer" transform="translate(408 408)"></use>
	<use xlink:href="#icon-Eat-2" transform="translate(544 408)"></use>
	<use xlink:href="#icon-Eat" transform="translate(680 408)"></use>
	<use xlink:href="#icon-Edit" transform="translate(816 408)"></use>
	<use xlink:href="#icon-Envelope-Open" transform="translate(952 408)"></use>
	<use xlink:href="#icon-Envelope" transform="translate(1088 408)"></use>
	<use xlink:href="#icon-Facebook" transform="translate(1224 408)"></use>
	<use xlink:href="#icon-Family" transform="translate(1360 408)"></use>
	<use xlink:href="#icon-Files" transform="translate(1496 408)"></use>
	<use xlink:href="#icon-Filter" transform="translate(1632 408)"></use>
	<use xlink:href="#icon-Flag" transform="translate(1768 408)"></use>
	<use xlink:href="#icon-Folder" transform="translate(1904 408)"></use>
	<use xlink:href="#icon-Frame" transform="translate(2040 408)"></use>
	<use xlink:href="#icon-GooglePlus" transform="translate(0 544)"></use>
	<use xlink:href="#icon-GPS" transform="translate(136 544)"></use>
	<use xlink:href="#icon-GraduationHat" transform="translate(272 544)"></use>
	<use xlink:href="#icon-Grid" transform="translate(408 544)"></use>
	<use xlink:href="#icon-Handwriting" transform="translate(544 544)"></use>
	<use xlink:href="#icon-Hangouts" transform="translate(680 544)"></use>
	<use xlink:href="#icon-Heart-Check" transform="translate(816 544)"></use>
	<use xlink:href="#icon-Heart-Empty" transform="translate(952 544)"></use>
	<use xlink:href="#icon-Heart" transform="translate(1088 544)"></use>
	<use xlink:href="#icon-Help" transform="translate(1224 544)"></use>
	<use xlink:href="#icon-Home" transform="translate(1360 544)"></use>
	<use xlink:href="#icon-HorizontalGrid" transform="translate(1496 544)"></use>
	<use xlink:href="#icon-Image" transform="translate(1632 544)"></use>
	<use xlink:href="#icon-Inbox" transform="translate(1768 544)"></use>
	<use xlink:href="#icon-Information" transform="translate(1904 544)"></use>
	<use xlink:href="#icon-Italics" transform="translate(2040 544)"></use>
	<use xlink:href="#icon-Join" transform="translate(0 680)"></use>
	<use xlink:href="#icon-Justify" transform="translate(136 680)"></use>
	<use xlink:href="#icon-Keyboard" transform="translate(272 680)"></use>
	<use xlink:href="#icon-Label" transform="translate(408 680)"></use>
	<use xlink:href="#icon-LeftAlign" transform="translate(544 680)"></use>
	<use xlink:href="#icon-LeftCaret" transform="translate(680 680)"></use>
	<use xlink:href="#icon-Location" transform="translate(816 680)"></use>
	<use xlink:href="#icon-Lock-Open" transform="translate(952 680)"></use>
	<use xlink:href="#icon-Lock" transform="translate(1088 680)"></use>
	<use xlink:href="#icon-Magazine" transform="translate(1224 680)"></use>
	<use xlink:href="#icon-MagicWand" transform="translate(1360 680)"></use>
	<use xlink:href="#icon-Maps" transform="translate(1496 680)"></use>
	<use xlink:href="#icon-Message" transform="translate(1632 680)"></use>
	<use xlink:href="#icon-Mic" transform="translate(1768 680)"></use>
	<use xlink:href="#icon-MosaicGrid" transform="translate(1904 680)"></use>
	<use xlink:href="#icon-Movie" transform="translate(2040 680)"></use>
	<use xlink:href="#icon-Mute" transform="translate(0 816)"></use>
	<use xlink:href="#icon-Navigate" transform="translate(136 816)"></use>
	<use xlink:href="#icon-Network" transform="translate(272 816)"></use>
	<use xlink:href="#icon-New" transform="translate(408 816)"></use>
	<use xlink:href="#icon-News" transform="translate(544 816)"></use>
	<use xlink:href="#icon-Next" transform="translate(680 816)"></use>
	<use xlink:href="#icon-Overflow-Horizontal" transform="translate(816 816)"></use>
	<use xlink:href="#icon-Overflow-Vertical" transform="translate(952 816)"></use>
	<use xlink:href="#icon-Paste" transform="translate(1088 816)"></use>
	<use xlink:href="#icon-Pause" transform="translate(1224 816)"></use>
	<use xlink:href="#icon-Phone-Down" transform="translate(1360 816)"></use>
	<use xlink:href="#icon-Phone" transform="translate(1496 816)"></use>
	<use xlink:href="#icon-Picasa" transform="translate(1632 816)"></use>
	<use xlink:href="#icon-Plane" transform="translate(1768 816)"></use>
	<use xlink:href="#icon-Play" transform="translate(1904 816)"></use>
	<use xlink:href="#icon-Presentation" transform="translate(2040 816)"></use>
	<use xlink:href="#icon-Previous" transform="translate(0 952)"></use>
	<use xlink:href="#icon-Print" transform="translate(136 952)"></use>
	<use xlink:href="#icon-QuickReply" transform="translate(272 952)"></use>
	<use xlink:href="#icon-RadioSelected" transform="translate(408 952)"></use>
	<use xlink:href="#icon-RadioUnselected" transform="translate(544 952)"></use>
	<use xlink:href="#icon-Radio" transform="translate(680 952)"></use>
	<use xlink:href="#icon-Reorder" transform="translate(816 952)"></use>
	<use xlink:href="#icon-Replay" transform="translate(952 952)"></use>
	<use xlink:href="#icon-Reply" transform="translate(1088 952)"></use>
	<use xlink:href="#icon-Ribbon" transform="translate(1224 952)"></use>
	<use xlink:href="#icon-RightAlign" transform="translate(1360 952)"></use>
	<use xlink:href="#icon-RightCaret" transform="translate(1496 952)"></use>
	<use xlink:href="#icon-Scissors" transform="translate(1632 952)"></use>
	<use xlink:href="#icon-Search" transform="translate(1768 952)"></use>
	<use xlink:href="#icon-Send" transform="translate(1904 952)"></use>
	<use xlink:href="#icon-Settings" transform="translate(2040 952)"></use>
	<use xlink:href="#icon-Share" transform="translate(0 1088)"></use>
	<use xlink:href="#icon-Shuffle" transform="translate(136 1088)"></use>
	<use xlink:href="#icon-Sort" transform="translate(272 1088)"></use>
	<use xlink:href="#icon-Spam" transform="translate(408 1088)"></use>
	<use xlink:href="#icon-Speaker" transform="translate(544 1088)"></use>
	<use xlink:href="#icon-Spreadsheet" transform="translate(680 1088)"></use>
	<use xlink:href="#icon-StarEmpty" transform="translate(816 1088)"></use>
	<use xlink:href="#icon-Star" transform="translate(952 1088)"></use>
	<use xlink:href="#icon-Stop" transform="translate(1088 1088)"></use>
	<use xlink:href="#icon-Stopwatch" transform="translate(1224 1088)"></use>
	<use xlink:href="#icon-Storage" transform="translate(1360 1088)"></use>
	<use xlink:href="#icon-Tag" transform="translate(1496 1088)"></use>
	<use xlink:href="#icon-TextStyle" transform="translate(1632 1088)"></use>
	<use xlink:href="#icon-ThumbsDown" transform="translate(1768 1088)"></use>
	<use xlink:href="#icon-ThumbsUp" transform="translate(1904 1088)"></use>
	<use xlink:href="#icon-Ticket" transform="translate(2040 1088)"></use>
	<use xlink:href="#icon-Trash" transform="translate(0 1224)"></use>
	<use xlink:href="#icon-Twitter" transform="translate(136 1224)"></use>
	<use xlink:href="#icon-Typing" transform="translate(272 1224)"></use>
	<use xlink:href="#icon-Underline" transform="translate(408 1224)"></use>
	<use xlink:href="#icon-Undo" transform="translate(544 1224)"></use>
	<use xlink:href="#icon-Up-downCarets" transform="translate(680 1224)"></use>
	<use xlink:href="#icon-Upload_" transform="translate(816 1224)"></use>
	<use xlink:href="#icon-Upload" transform="translate(952 1224)"></use>
	<use xlink:href="#icon-Usage-Pie" transform="translate(1088 1224)"></use>
	<use xlink:href="#icon-User" transform="translate(1224 1224)"></use>
	<use xlink:href="#icon-UsersGroup" transform="translate(1360 1224)"></use>
	<use xlink:href="#icon-Users" transform="translate(1496 1224)"></use>
	<use xlink:href="#icon-VideoCamera" transform="translate(1632 1224)"></use>
	<use xlink:href="#icon-Walking" transform="translate(1768 1224)"></use>
	<use xlink:href="#icon-Warning" transform="translate(1904 1224)"></use>
	<use xlink:href="#icon-Wifi" transform="translate(2040 1224)"></use>
</g>

</svg>
