<?xml version="1.0" encoding="utf-8"?>
<!-- Generated by IcoMoon.io -->
<!DOCTYPE svg PUBLIC "-//W3C//DTD SVG 1.1//EN" "http://www.w3.org/Graphics/SVG/1.1/DTD/svg11.dtd">
<svg version="1.1" xmlns="http://www.w3.org/2000/svg" xmlns:xlink="http://www.w3.org/1999/xlink" width="120" height="120" viewBox="0 0 120 120">
<g>
</g>
	<path d="M60 89.611v-3.061c-6.773-0.001-12.875-2.736-17.318-7.172-4.436-4.442-7.171-10.547-7.172-17.319 0.001-6.771 2.736-12.875 7.172-17.316 4.442-4.438 10.545-7.172 17.318-7.174 6.773 0.001 12.876 2.736 17.318 7.172 4.438 4.441 7.171 10.544 7.172 17.316-0.001 6.774-2.735 12.878-7.172 17.319-4.441 4.438-10.545 7.172-17.318 7.174v6.122c16.909-0.002 30.61-13.706 30.613-30.615-0.002-16.906-13.704-30.61-30.613-30.611-16.907 0.002-30.61 13.705-30.613 30.613 0.002 16.909 13.705 30.613 30.613 30.615v-3.062z" fill="#000000"></path>
	<path d="M92.61 42.092c-3.82-6.227-9.36-11.255-15.967-14.458l-2.671 5.509c5.552 2.691 10.213 6.92 13.419 12.15l5.22-3.201z" fill="#000000"></path>
	<path d="M32.61 45.292c3.206-5.23 7.865-9.458 13.419-12.15l-2.671-5.509c-6.609 3.203-12.149 8.23-15.967 14.458l5.22 3.201z" fill="#000000"></path>
	<path d="M56.939 46.754v16.571l10.003 10.009 4.331-4.329-8.211-8.214v-14.038z" fill="#000000"></path>
</svg>
