<?xml version="1.0" encoding="utf-8"?>
<!-- Generated by IcoMoon.io -->
<!DOCTYPE svg PUBLIC "-//W3C//DTD SVG 1.1//EN" "http://www.w3.org/Graphics/SVG/1.1/DTD/svg11.dtd">
<svg version="1.1" xmlns="http://www.w3.org/2000/svg" xmlns:xlink="http://www.w3.org/1999/xlink" width="120" height="120" viewBox="0 0 120 120">
<g>
</g>
	<path d="M52.5 60c-1.51 1.142-2.5 2.935-2.5 4.974 0 2.036 0.99 3.886 2.5 5.026 1.51-1.14 2.5-2.991 2.5-5.026 0-2.039-0.99-3.831-2.5-4.974zM71.001 42.7c-2.146 0-4.175 0.489-6.001 1.333v-11.533h-5v11.314c-0.352-2.749-1.55-5.405-3.665-7.522-3.023-3.020-7.156-4.088-11.085-3.542-0.49 3.532 0.44 7.093 2.822 9.998-8.678 0.486-15.572 7.656-15.572 16.453 0 10.989 4.958 18.317 12.758 24.877 2.498 2.125 5.708 3.424 9.242 3.424 1.951 0 3.809-0.392 5.5-1.101 1.693 0.709 3.55 1.101 5.5 1.101 3.535 0 6.745-1.299 9.241-3.422 7.802-6.56 12.759-13.89 12.759-24.879 0-9.111-7.387-16.499-16.499-16.499zM60 80.969c-1.56 1.109-3.445 1.78-5.5 1.78-2.87 0-4.934-1.245-6.184-2.31-7.033-5.911-11.066-12.065-11.066-21.24 0-6.48 5.27-11.75 11.75-11.75 5.065 0 9.351 3.24 11 7.744v25.776z" fill="#000000"></path>
</svg>
