<?xml version="1.0" encoding="utf-8"?>
<!-- Generated by IcoMoon.io -->
<!DOCTYPE svg PUBLIC "-//W3C//DTD SVG 1.1//EN" "http://www.w3.org/Graphics/SVG/1.1/DTD/svg11.dtd">
<svg version="1.1" xmlns="http://www.w3.org/2000/svg" xmlns:xlink="http://www.w3.org/1999/xlink" width="120" height="120" viewBox="0 0 120 120">
<g>
</g>
	<path d="M36.354 41.579c-3.966 5.087-6.354 11.469-6.354 18.421s2.387 13.333 6.354 18.421c5.278-4.405 8.644-11.026 8.644-18.421s-3.366-14.015-8.644-18.421zM68.996 60c0-9.118 4.085-17.267 10.502-22.772-5.246-4.496-12.049-7.228-19.499-7.228-7.453 0-14.256 2.731-19.5 7.23 6.416 5.503 10.498 13.652 10.498 22.77s-4.081 17.267-10.498 22.77c5.244 4.496 12.047 7.23 19.5 7.23 7.45 0 14.252-2.731 19.5-7.228-6.419-5.503-10.504-13.655-10.504-22.772zM83.642 41.575c-5.276 4.409-8.645 11.027-8.645 18.425s3.369 14.019 8.645 18.425c3.97-5.089 6.358-11.473 6.358-18.425 0-6.955-2.387-13.336-6.358-18.425z" fill="#000000"></path>
</svg>
