<?xml version="1.0" encoding="utf-8"?>
<!-- Generated by IcoMoon.io -->
<!DOCTYPE svg PUBLIC "-//W3C//DTD SVG 1.1//EN" "http://www.w3.org/Graphics/SVG/1.1/DTD/svg11.dtd">
<svg version="1.1" xmlns="http://www.w3.org/2000/svg" xmlns:xlink="http://www.w3.org/1999/xlink" width="120" height="120" viewBox="0 0 120 120">
<g>
</g>
	<path d="M49.352 57.886l10.648-14.846 10.648 14.846c0.805 1.121 2.366 1.38 3.489 0.575 1.121-0.805 1.38-2.368 0.574-3.489l-12.679-17.68c-0.467-0.651-1.229-1.043-2.031-1.043s-1.564 0.39-2.031 1.043l-12.68 17.68c-0.805 1.121-0.547 2.684 0.575 3.489 1.123 0.804 2.684 0.546 3.489-0.575z" fill="#000000"></path>
	<path d="M87.407 53.75h-54.814c-1.798 0-3.050 1.724-2.435 3.355l8.484 22.5c0.371 0.989 1.345 1.645 2.435 1.645h37.843c1.091 0 2.065-0.656 2.436-1.645l8.484-22.5c0.616-1.631-0.636-3.355-2.432-3.355zM60 71.25c-2.761 0-5-2.239-5-5s2.239-5 5-5 5 2.239 5 5-2.239 5-5 5z" fill="#000000"></path>
</svg>
