<?xml version="1.0" encoding="utf-8"?>
<!-- Generated by IcoMoon.io -->
<!DOCTYPE svg PUBLIC "-//W3C//DTD SVG 1.1//EN" "http://www.w3.org/Graphics/SVG/1.1/DTD/svg11.dtd">
<svg version="1.1" xmlns="http://www.w3.org/2000/svg" xmlns:xlink="http://www.w3.org/1999/xlink" width="120" height="120" viewBox="0 0 120 120">
<g>
</g>
	<path d="M81 70.5c0-6.587 0-12.118 0-13.456 0-11.599-9.401-21-21-21s-21 9.401-21 21c0 1.339 0 6.87 0 13.456l-6 6.999v3.501h54v-3.501l-6-6.999z" fill="#000000"></path>
	<path d="M64.5 34.5c0-2.485-2.015-4.5-4.5-4.5s-4.5 2.015-4.5 4.5c0 0.838 0 12.661 0 13.5 0 2.485 2.016 4.5 4.5 4.5s4.5-2.015 4.5-4.5c0-0.839 0-12.661 0-13.5z" fill="#000000"></path>
	<path d="M60 90c3.313 0 6-2.686 6-6h-12c0 3.314 2.686 6 6 6z" fill="#000000"></path>
</svg>
