<?xml version="1.0" encoding="utf-8"?>
<!-- Generated by IcoMoon.io -->
<!DOCTYPE svg PUBLIC "-//W3C//DTD SVG 1.1//EN" "http://www.w3.org/Graphics/SVG/1.1/DTD/svg11.dtd">
<svg version="1.1" xmlns="http://www.w3.org/2000/svg" xmlns:xlink="http://www.w3.org/1999/xlink" width="120" height="120" viewBox="0 0 120 120">
<g>
</g>
	<path d="M64.5 34.5c0-2.485-2.015-4.5-4.5-4.5s-4.5 2.015-4.5 4.5c0 0.838 0 5.765 0 5.765l9 7.735c0 0 0-12.661 0-13.5z" fill="#000000"></path>
	<path d="M60 90c3.313 0 6-2.686 6-6h-12c0 3.314 2.686 6 6 6z" fill="#000000"></path>
	<path d="M30.128 34.371l4.243-4.243 55.499 55.499-4.243 4.243-55.499-55.499z" fill="#000000"></path>
	<path d="M81 68.387c0-5.627 0-10.151 0-11.344 0-11.599-9.401-21-21-21-3.305 0-6.419 0.785-9.199 2.145l30.199 30.199z" fill="#000000"></path>
	<path d="M45.765 41.638c-4.151 3.838-6.765 9.31-6.765 15.407 0 1.339 0 6.87 0 13.456l-6 6.999v3.5h52.129l-39.364-39.362z" fill="#000000"></path>
</svg>
