<?xml version="1.0" encoding="utf-8"?>
<!-- Generated by IcoMoon.io -->
<!DOCTYPE svg PUBLIC "-//W3C//DTD SVG 1.1//EN" "http://www.w3.org/Graphics/SVG/1.1/DTD/svg11.dtd">
<svg version="1.1" xmlns="http://www.w3.org/2000/svg" xmlns:xlink="http://www.w3.org/1999/xlink" width="120" height="120" viewBox="0 0 120 120">
<g>
</g>
	<path d="M74.289 59.091c4.142-2.889 7.074-7.571 7.074-11.949 0-9.664-7.48-17.143-17.144-17.143h-26.786v60h30.181c8.972 0 15.891-7.277 15.891-16.251 0-6.495-3.7-12.059-9.216-14.657zM50.29 40.715h12.857c3.549 0 6.427 2.879 6.427 6.429s-2.879 6.429-6.427 6.429h-12.857v-12.857zM65.29 79.286h-15v-12.857h15c3.549 0 6.429 2.88 6.429 6.43 0 3.547-2.88 6.427-6.429 6.427z" fill="#000000"></path>
</svg>
