<?xml version="1.0" encoding="utf-8"?>
<!-- Generated by IcoMoon.io -->
<!DOCTYPE svg PUBLIC "-//W3C//DTD SVG 1.1//EN" "http://www.w3.org/Graphics/SVG/1.1/DTD/svg11.dtd">
<svg version="1.1" xmlns="http://www.w3.org/2000/svg" xmlns:xlink="http://www.w3.org/1999/xlink" width="120" height="120" viewBox="0 0 120 120">
<g>
</g>
	<path d="M82.787 60.002l7.213-6.676-9.465-2.965 3.523-9.065-9.849 1.333-0.862-9.655-8.273 5.365-5.074-8.339-5.071 8.34-8.279-5.365-0.863 9.655-9.846-1.333 3.526 9.065-9.467 2.964 7.21 6.676-7.21 6.677 9.469 2.964-3.526 9.064 9.846-1.331 0.862 9.658 8.279-5.366 5.070 8.332 5.074-8.334 8.272 5.366 0.863-9.658 9.849 1.331-3.523-9.064 9.465-2.963-7.213-6.677zM60 78.169v-36.339c9.919 0.44 17.826 8.395 17.826 18.172s-7.907 17.728-17.826 18.166z" fill="#000000"></path>
</svg>
