<?xml version="1.0" encoding="utf-8"?>
<!-- Generated by IcoMoon.io -->
<!DOCTYPE svg PUBLIC "-//W3C//DTD SVG 1.1//EN" "http://www.w3.org/Graphics/SVG/1.1/DTD/svg11.dtd">
<svg version="1.1" xmlns="http://www.w3.org/2000/svg" xmlns:xlink="http://www.w3.org/1999/xlink" width="120" height="120" viewBox="0 0 120 120">
<g>
</g>
	<path d="M60 30c-13.951 0-25.262 1.579-25.262 12.631v30c0 6.106 4.954 11.053 11.053 11.053l-4.736 4.738v1.579h37.895v-1.579l-4.738-4.738c6.112 0 11.054-4.946 11.054-11.053v-30c-0.001-11.053-11.314-12.631-25.265-12.631zM45.789 77.369c-2.615 0-4.736-2.121-4.736-4.736 0-2.616 2.121-4.738 4.736-4.738 2.619 0 4.738 2.121 4.738 4.738 0 2.614-2.119 4.736-4.738 4.736zM56.843 58.421h-15.79v-15.79h15.789v15.79zM74.21 77.369c-2.615 0-4.736-2.121-4.736-4.736 0-2.616 2.121-4.738 4.736-4.738 2.619 0 4.738 2.121 4.738 4.738 0 2.614-2.119 4.736-4.738 4.736zM78.947 58.421h-15.79v-15.79h15.79v15.79z" fill="#000000"></path>
</svg>
