<?xml version="1.0" encoding="utf-8"?>
<!-- Generated by IcoMoon.io -->
<!DOCTYPE svg PUBLIC "-//W3C//DTD SVG 1.1//EN" "http://www.w3.org/Graphics/SVG/1.1/DTD/svg11.dtd">
<svg version="1.1" xmlns="http://www.w3.org/2000/svg" xmlns:xlink="http://www.w3.org/1999/xlink" width="120" height="120" viewBox="0 0 120 120">
<g>
</g>
	<path d="M65.854 57.805v-11.707h-11.708v11.707z" fill="#000000"></path>
	<path d="M64.39 38.78c0-2.424-4.39-8.78-4.39-8.78s-4.39 6.356-4.39 8.78 1.965 4.391 4.39 4.391c2.424 0 4.39-1.967 4.39-4.391z" fill="#000000"></path>
	<path d="M86.341 72.439l-8.78 2.927-8.782-2.927-8.779 2.927-8.78-2.927-8.781 2.927-8.78-2.927v17.561h52.682z" fill="#000000"></path>
	<path d="M77.561 54.877h-35.123c-6.457 0-11.707 5.251-11.707 11.708 0 6.457 5.25 11.706 11.707 11.706 3.493 0 6.634-1.536 8.78-3.97 2.146 2.431 5.288 3.97 8.78 3.97s6.635-1.536 8.78-3.97c2.146 2.431 5.286 3.97 8.779 3.97 6.456 0 11.708-5.249 11.708-11.706 0.004-6.456-5.248-11.708-11.704-11.708zM77.561 72.439c-6.338 0-8.779-5.855-8.779-5.855s-2.927 5.855-8.783 5.855c-5.854 0-8.78-5.855-8.78-5.855s-2.195 5.855-8.78 5.855c-3.227 0-5.854-2.625-5.854-5.855 0-3.227 2.627-5.854 5.854-5.854h35.123c3.226 0 5.854 2.626 5.854 5.854-0.004 3.234-2.629 5.855-5.855 5.855z" fill="#000000"></path>
</svg>
