<?xml version="1.0" encoding="utf-8"?>
<!-- Generated by IcoMoon.io -->
<!DOCTYPE svg PUBLIC "-//W3C//DTD SVG 1.1//EN" "http://www.w3.org/Graphics/SVG/1.1/DTD/svg11.dtd">
<svg version="1.1" xmlns="http://www.w3.org/2000/svg" xmlns:xlink="http://www.w3.org/1999/xlink" width="120" height="120" viewBox="0 0 120 120">
<g>
</g>
	<path d="M51 33l-5.484 6h-9.516c-3.31 0-6 2.687-6 6v36c0 3.316 2.689 6 6 6h48c3.316 0 6-2.683 6-6v-36c0-3.311-2.683-6-6-6h-9.515l-5.485-6h-18zM60 78c-8.282 0-15-6.715-15-15s6.718-15 15-15c8.289 0 15 6.715 15 15s-6.711 15-15 15z" fill="#000000"></path>
</svg>
