<?xml version="1.0" encoding="utf-8"?>
<!-- Generated by IcoMoon.io -->
<!DOCTYPE svg PUBLIC "-//W3C//DTD SVG 1.1//EN" "http://www.w3.org/Graphics/SVG/1.1/DTD/svg11.dtd">
<svg version="1.1" xmlns="http://www.w3.org/2000/svg" xmlns:xlink="http://www.w3.org/1999/xlink" width="120" height="120" viewBox="0 0 120 120">
<g>
</g>
	<path d="M83.063 36.704c-0.676-1.965-2.539-3.371-4.729-3.371h-36.667c-2.191 0-4.050 1.406-4.726 3.371l-6.94 19.963v26.666c0 1.839 1.494 3.332 3.334 3.332h3.334c1.843 0 3.334-1.494 3.334-3.332v-3.332h40v3.334c0 1.839 1.494 3.332 3.334 3.332h3.332c1.844 0 3.334-1.494 3.334-3.332v-26.668l-6.939-19.963zM41.666 70c-2.76 0-5-2.24-5-5s2.24-5 5-5c2.764 0 5 2.24 5 5s-2.236 5-5 5zM78.334 70c-2.761 0-5-2.24-5-5s2.239-5 5-5c2.764 0 5 2.24 5 5s-2.236 5-5 5zM36.666 53.334l5-15h36.666l5 15h-46.666z" fill="#000000"></path>
</svg>
