<?xml version="1.0" encoding="utf-8"?>
<!-- Generated by IcoMoon.io -->
<!DOCTYPE svg PUBLIC "-//W3C//DTD SVG 1.1//EN" "http://www.w3.org/Graphics/SVG/1.1/DTD/svg11.dtd">
<svg version="1.1" xmlns="http://www.w3.org/2000/svg" xmlns:xlink="http://www.w3.org/1999/xlink" width="120" height="120" viewBox="0 0 120 120">
<g>
</g>
	<path d="M48 78c-3.31 0-5.97 2.689-5.97 6 0 3.316 2.66 6 5.97 6 3.316 0 6-2.683 6-6 0-3.31-2.684-6-6-6zM30 36h6l10.79 22.761-4.055 7.356c-0.469 0.855-0.735 1.839-0.735 2.882 0 3.316 2.689 6 6 6h36v-6h-34.731c-0.414 0-0.75-0.335-0.75-0.751 0-0.131 0.035-0.257 0.096-0.362l2.69-4.886h22.348c2.256 0 4.221-1.245 5.246-3.089l10.729-19.466c0.239-0.425 0.373-0.92 0.373-1.445 0-1.659-1.345-3-3-3h-44.361l-1.216-2.565c-0.96-2.031-3.029-3.435-5.422-3.435h-6v6zM78 78c-3.31 0-5.971 2.689-5.971 6 0 3.316 2.661 6 5.971 6 3.315 0 6-2.683 6-6 0-3.31-2.684-6-6-6z" fill="#000000"></path>
</svg>
