<?xml version="1.0" encoding="utf-8"?>
<!-- Generated by IcoMoon.io -->
<!DOCTYPE svg PUBLIC "-//W3C//DTD SVG 1.1//EN" "http://www.w3.org/Graphics/SVG/1.1/DTD/svg11.dtd">
<svg version="1.1" xmlns="http://www.w3.org/2000/svg" xmlns:xlink="http://www.w3.org/1999/xlink" width="120" height="120" viewBox="0 0 120 120">
<g>
</g>
	<path d="M70.91 43.636v31.364c0 6.024-4.885 10.91-10.91 10.91s-10.909-4.885-10.909-10.91v-34.091c0-3.766 3.051-6.818 6.818-6.818s6.819 3.051 6.819 6.818v28.637c0 1.504-1.22 2.728-2.728 2.728-1.51 0-2.728-1.224-2.728-2.728v-25.91h-4.091v25.91c0 3.766 3.053 6.817 6.819 6.817s6.818-3.051 6.818-6.817v-28.637c0-6.024-4.884-10.909-10.909-10.909-6.024 0-10.909 4.885-10.909 10.909v34.091c0 8.286 6.718 15 15 15s15-6.714 15-15v-31.364h-4.090z" fill="#000000"></path>
</svg>
