<?xml version="1.0" encoding="utf-8"?>
<!-- Generated by IcoMoon.io -->
<!DOCTYPE svg PUBLIC "-//W3C//DTD SVG 1.1//EN" "http://www.w3.org/Graphics/SVG/1.1/DTD/svg11.dtd">
<svg version="1.1" xmlns="http://www.w3.org/2000/svg" xmlns:xlink="http://www.w3.org/1999/xlink" width="120" height="120" viewBox="0 0 120 120">
<g>
</g>
	<path d="M80.75 36.25h-12.283c-0.892-2.5-3.994-6-7.716-6s-6.825 3.5-7.718 6h-14.284c-3.314 0-6.25 2.063-6.25 5.379v42c0 3.313 2.936 6.371 6.25 6.371h42c3.315 0 5.5-3.059 5.5-6.371v-42c0-3.316-2.185-5.379-5.5-5.379zM56.891 36.632c0.011-0.047 0.029-0.094 0.043-0.14 0.094-0.301 0.212-0.594 0.371-0.864v0c0.339-0.581 0.81-0.754 1.385-1.101-0.569 0.347-1.048 1.723-1.385 1.723h6.891c-0.339 0-1.039-1.375-1.605-1.723 0.572 0.347 1.159 0.359 1.159 0.941v0.081c0 0.27 0.5 0.599 0.594 0.902 0.016 0.047 0.142 0.112 0.155 0.16 0.085 0.316 0.195 0.66 0.195 1.004 0 2.211-1.761 4.004-3.971 4.004-2.209 0-3.986-1.785-3.986-3.996 0-0.343 0.069-0.674 0.155-0.991zM80 83.75h-41.25v-40h5v3.879c0 2.207 2.791 4.871 5 4.871h24c2.209 0 3.5-2.664 3.5-4.871v-3.879h3.75v40z" fill="#000000"></path>
</svg>
