<?xml version="1.0" encoding="utf-8"?>
<!-- Generated by IcoMoon.io -->
<!DOCTYPE svg PUBLIC "-//W3C//DTD SVG 1.1//EN" "http://www.w3.org/Graphics/SVG/1.1/DTD/svg11.dtd">
<svg version="1.1" xmlns="http://www.w3.org/2000/svg" xmlns:xlink="http://www.w3.org/1999/xlink" width="120" height="120" viewBox="0 0 120 120">
<g>
</g>
	<path d="M59.829 30.313c-16.41 0-29.672 13.29-29.672 29.687 0 16.399 13.262 29.689 29.672 29.689 16.406 0 29.7-13.29 29.7-29.689 0-16.397-13.295-29.687-29.7-29.687zM59.843 83.749c-13.121 0-23.749-10.631-23.749-23.749 0-13.116 10.627-23.75 23.749-23.75s23.75 10.635 23.75 23.75c0 13.118-10.629 23.749-23.75 23.749z" fill="#000000"></path>
	<path d="M61.328 42.188h-4.453v20.783l15.741 9.443 2.226-3.71-13.515-8.109z" fill="#000000"></path>
</svg>
