<?xml version="1.0" encoding="utf-8"?>
<!-- Generated by IcoMoon.io -->
<!DOCTYPE svg PUBLIC "-//W3C//DTD SVG 1.1//EN" "http://www.w3.org/Graphics/SVG/1.1/DTD/svg11.dtd">
<svg version="1.1" xmlns="http://www.w3.org/2000/svg" xmlns:xlink="http://www.w3.org/1999/xlink" width="120" height="120" viewBox="0 0 120 120">
<g>
</g>
	<path d="M75.201 61.465l-29.797-29.799-4.714 4.714 7.93 7.93-17.155 17.155c-1.952 1.952-1.952 5.117 0 7.070l18.334 18.334c0.976 0.976 2.256 1.465 3.535 1.465s2.559-0.489 3.535-1.465l18.334-18.334c1.952-1.952 1.952-5.117-0.001-7.070zM37.356 65l15.976-15.974 15.977 15.974h-31.954zM83.334 70c0 0-6.668 7.222-6.668 11.666 0 3.679 2.989 6.668 6.668 6.668 3.677 0 6.666-2.989 6.666-6.668 0-4.444-6.666-11.666-6.666-11.666z" fill="#000000"></path>
</svg>
