<?xml version="1.0" encoding="utf-8"?>
<!-- Generated by IcoMoon.io -->
<!DOCTYPE svg PUBLIC "-//W3C//DTD SVG 1.1//EN" "http://www.w3.org/Graphics/SVG/1.1/DTD/svg11.dtd">
<svg version="1.1" xmlns="http://www.w3.org/2000/svg" xmlns:xlink="http://www.w3.org/1999/xlink" width="120" height="120" viewBox="0 0 120 120">
<g>
</g>
	<path d="M63.287 60c0 1.816-1.472 3.287-3.287 3.287s-3.287-1.472-3.287-3.287c0-1.816 1.472-3.287 3.287-3.287s3.287 1.472 3.287 3.287z" fill="#000000"></path>
	<path d="M60 30c-16.569 0-30 13.431-30 30 0 16.57 13.431 30 30 30 16.57 0 30-13.43 30-30 0-16.569-13.43-30-30-30zM66.364 66.364l-24.364 11.636 11.636-24.364 24.364-11.636-11.636 24.364z" fill="#000000"></path>
</svg>
