<?xml version="1.0" encoding="utf-8"?>
<!-- Generated by IcoMoon.io -->
<!DOCTYPE svg PUBLIC "-//W3C//DTD SVG 1.1//EN" "http://www.w3.org/Graphics/SVG/1.1/DTD/svg11.dtd">
<svg version="1.1" xmlns="http://www.w3.org/2000/svg" xmlns:xlink="http://www.w3.org/1999/xlink" width="120" height="120" viewBox="0 0 120 120">
<g>
</g>
	<path d="M84 30h-48c-3.313 0-6 2.686-6 6v48c0 3.313 2.686 6 6 6h48c3.313 0 6-2.686 6-6v-48c0-3.314-2.686-6-6-6zM60 42c4.972 0 9 4.030 9 9 0 4.971-4.029 9-9 9s-9-4.030-9-9c0-4.97 4.027-9 9-9zM78 78h-36v-3.983c0-1.456 0.674-2.821 1.851-3.676 2.431-1.774 7.451-4.341 16.149-4.341 8.699 0 13.718 2.567 16.149 4.343 1.177 0.856 1.851 2.22 1.851 3.676v3.981z" fill="#000000"></path>
</svg>
