<?xml version="1.0" encoding="utf-8"?>
<!-- Generated by IcoMoon.io -->
<!DOCTYPE svg PUBLIC "-//W3C//DTD SVG 1.1//EN" "http://www.w3.org/Graphics/SVG/1.1/DTD/svg11.dtd">
<svg version="1.1" xmlns="http://www.w3.org/2000/svg" xmlns:xlink="http://www.w3.org/1999/xlink" width="120" height="120" viewBox="0 0 120 120">
<g>
</g>
	<path d="M70 42.999c2.48 0 4.5-2.016 4.5-4.5s-2.019-4.5-4.5-4.5c-2.488 0-4.5 2.016-4.5 4.5s2.012 4.5 4.5 4.5zM77.5 61c-6.904 0-12.5 5.597-12.5 12.501s5.596 12.5 12.5 12.5c6.901 0 12.5-5.596 12.5-12.5s-5.599-12.501-12.5-12.501zM77.5 82.251c-4.831 0-8.75-3.916-8.75-8.75s3.919-8.75 8.75-8.75 8.75 3.916 8.75 8.75-3.919 8.75-8.75 8.75zM67 56h10.5v-4.5h-8.005l-4.834-8.165c-0.74-1.247-2.102-2.085-3.66-2.085-1.174 0-2.236 0.475-3.005 1.245l-9.244 9.242c-0.771 0.77-1.252 1.835-1.252 3.013 0 1.573 0.835 2.903 2.124 3.68l8.376 5.071v12.5h4.5v-16.195l-5.625-4.181 5.801-5.825 4.324 6.2zM42.5 61c-6.904 0-12.5 5.597-12.5 12.501s5.596 12.5 12.5 12.5c6.901 0 12.5-5.596 12.5-12.5s-5.599-12.501-12.5-12.501zM42.5 82.251c-4.831 0-8.75-3.916-8.75-8.75s3.919-8.75 8.75-8.75 8.75 3.916 8.75 8.75-3.919 8.75-8.75 8.75z" fill="#000000"></path>
</svg>
