<?xml version="1.0" encoding="utf-8"?>
<!-- Generated by IcoMoon.io -->
<!DOCTYPE svg PUBLIC "-//W3C//DTD SVG 1.1//EN" "http://www.w3.org/Graphics/SVG/1.1/DTD/svg11.dtd">
<svg version="1.1" xmlns="http://www.w3.org/2000/svg" xmlns:xlink="http://www.w3.org/1999/xlink" width="120" height="120" viewBox="0 0 120 120">
<g>
</g>
	<path d="M89.121 57.883l-27.009-27.002c-1.166-1.172-3.070-1.172-4.236 0.002l-26.999 27c-1.169 1.174-1.172 3.069 0 4.243l26.994 26.987c0.005 0.006 0.002 0.006 0.005 0.013 1.175 1.166 3.070 1.17 4.243 0l27.002-27.001c1.171-1.172 1.171-3.068 0-4.241zM66.001 67.499v-7.499h-12v8.999h-6v-11.999c0-1.66 1.341-3 3-3h15v-7.5l10.499 10.5-10.499 10.499z" fill="#000000"></path>
</svg>
