<?xml version="1.0" encoding="utf-8"?>
<!-- Generated by IcoMoon.io -->
<!DOCTYPE svg PUBLIC "-//W3C//DTD SVG 1.1//EN" "http://www.w3.org/Graphics/SVG/1.1/DTD/svg11.dtd">
<svg version="1.1" xmlns="http://www.w3.org/2000/svg" xmlns:xlink="http://www.w3.org/1999/xlink" width="120" height="120" viewBox="0 0 120 120">
<g>
</g>
	<path d="M48 90h6v-24h-6v24zM42 30h-3v60h6v-30.53c5.17-1.672 9-7.489 9-14.47 0-8.285-5.37-15-12-15zM57 90h6v-24h-6v24zM69 30c-6.628 0-12 6.715-12 15 0 6.981 3.835 12.796 9 14.47v30.53h6v-30.53c5.169-1.672 9-7.489 9-14.47 0-8.285-5.37-15-12-15z" fill="#000000"></path>
</svg>
