<?xml version="1.0" encoding="utf-8"?>
<!-- Generated by IcoMoon.io -->
<!DOCTYPE svg PUBLIC "-//W3C//DTD SVG 1.1//EN" "http://www.w3.org/Graphics/SVG/1.1/DTD/svg11.dtd">
<svg version="1.1" xmlns="http://www.w3.org/2000/svg" xmlns:xlink="http://www.w3.org/1999/xlink" width="120" height="120" viewBox="0 0 120 120">
<g>
</g>
	<path d="M46.814 63.542l8.875-8.878-22.012-22.009c-4.901 4.901-4.901 12.846 0 17.75l13.138 13.136z" fill="#000000"></path>
	<path d="M68.096 57.855c4.786 2.237 11.54 0.665 16.532-4.33 6.006-6.002 7.149-14.599 2.552-19.192-4.597-4.592-13.189-3.454-19.193 2.552-4.995 4.995-6.566 11.746-4.33 16.531-6.981 6.981-30.629 30.63-30.629 30.63l4.436 4.438 21.583-21.585 21.586 21.585 4.438-4.438-21.585-21.583 4.609-4.609z" fill="#000000"></path>
</svg>
