<?xml version="1.0" encoding="utf-8"?>
<!-- Generated by IcoMoon.io -->
<!DOCTYPE svg PUBLIC "-//W3C//DTD SVG 1.1//EN" "http://www.w3.org/Graphics/SVG/1.1/DTD/svg11.dtd">
<svg version="1.1" xmlns="http://www.w3.org/2000/svg" xmlns:xlink="http://www.w3.org/1999/xlink" width="120" height="120" viewBox="0 0 120 120">
<g>
</g>
	<path d="M75.209 53.578c-1.396-3.871-5.102-6.353-9.455-6.353-9.54 0-17.466 2.669-24.27 8.326l13.711 13.711h13.296l4.884 14.020c0.785 2.237 2.919 3.846 5.428 3.846 3.174 0 5.743-2.567 5.743-5.741 0-0.661-0.113-1.304-0.32-1.896l-9.016-25.914zM59.919 75.646h-24.178c-3.171 0-5.741 2.569-5.741 5.743s2.571 5.741 5.741 5.741h20.095c3.174 0 5.741-2.567 5.741-5.741 0-0.661-0.113-1.304-0.317-1.896l-1.341-3.846zM81.674 32.87c-4.597 0-8.326 3.729-8.326 8.326s3.729 8.326 8.326 8.326c4.599 0 8.326-3.729 8.326-8.326s-3.727-8.326-8.326-8.326z" fill="#000000"></path>
</svg>
