<?xml version="1.0" encoding="utf-8"?>
<!-- Generated by IcoMoon.io -->
<!DOCTYPE svg PUBLIC "-//W3C//DTD SVG 1.1//EN" "http://www.w3.org/Graphics/SVG/1.1/DTD/svg11.dtd">
<svg version="1.1" xmlns="http://www.w3.org/2000/svg" xmlns:xlink="http://www.w3.org/1999/xlink" width="120" height="120" viewBox="0 0 120 120">
<g>
</g>
	<path d="M79.063 30h-10.313v6.25h10.313c1.772 0 2.188 2.344 2.188 4.116v10.884h7.5v-10.884c0-5.316-4.37-10.366-9.688-10.366z" fill="#000000"></path>
	<path d="M81.25 81.081c0 1.772-0.415 2.669-2.188 2.669h-10.313v6.25h10.313c5.317 0 9.688-3.601 9.688-8.919v-9.831h-7.5v9.831z" fill="#000000"></path>
	<path d="M36.25 81.081v-9.831h-6.25v9.831c0 5.317 5.174 8.919 10.491 8.919h9.509v-6.25h-9.509c-1.772 0-4.241-0.896-4.241-2.669z" fill="#000000"></path>
	<path d="M30 40.366v10.884h6.25v-10.884c0-1.772 2.469-4.116 4.241-4.116h9.509v-6.25h-9.509c-5.318 0-10.491 5.050-10.491 10.366z" fill="#000000"></path>
</svg>
