<?xml version="1.0" encoding="utf-8"?>
<!-- Generated by IcoMoon.io -->
<!DOCTYPE svg PUBLIC "-//W3C//DTD SVG 1.1//EN" "http://www.w3.org/Graphics/SVG/1.1/DTD/svg11.dtd">
<svg version="1.1" xmlns="http://www.w3.org/2000/svg" xmlns:xlink="http://www.w3.org/1999/xlink" width="120" height="120" viewBox="0 0 120 120">
<g>
</g>
	<path d="M60.621 54.425c0-3.124-1.888-7.969-5.527-7.969-1.14 0-2.369 0.561-3.076 1.438-0.744 0.896-0.971 2.068-0.971 3.189 0 2.9 1.724 7.709 5.494 7.709 1.105 0 2.284-0.527 2.991-1.217 1-0.997 1.090-2.379 1.090-3.149z" fill="#000000"></path>
	<path d="M58.256 65.801c-0.351-0.041-0.571-0.041-1.014-0.041-0.395 0-2.762 0.082-4.607 0.692-0.97 0.347-3.77 1.382-3.77 4.453 0 3.073 3.025 5.282 7.72 5.282 4.214 0 6.449-1.999 6.449-4.679 0.001-2.21-1.445-3.373-4.778-5.707z" fill="#000000"></path>
	<path d="M60 30c-16.569 0-30 13.431-30 30 0 16.57 13.431 30 30 30 16.57 0 30-13.43 30-30 0-16.569-13.43-30-30-30zM54.43 78c-6.364 0-9.43-2.983-9.43-6.187 0-1.553 0.79-3.763 3.386-5.28 2.711-1.64 6.399-1.86 8.377-1.995-0.616-0.774-1.319-1.594-1.319-2.941 0-0.725 0.22-1.161 0.444-1.686-0.489 0.041-0.971 0.086-1.409 0.086-4.651 0-7.291-3.425-7.291-6.8 0-1.993 0.925-4.209 2.821-5.8 2.491-2.036 5.482-2.396 7.849-2.396h9.041l-2.813 1.435h-2.72c1.007 0.964 3.121 2.629 3.121 5.919 0 3.201-1.844 4.793-3.689 6.212-0.569 0.568-1.235 1.179-1.235 2.128s0.666 1.474 1.15 1.855l1.577 1.215c1.933 1.603 3.677 3.079 3.677 6.059 0 4.070-3.992 8.177-11.54 8.177zM81 63h-6v6h-3v-6h-6v-3h6v-6h3v6h6v3z" fill="#000000"></path>
</svg>
