<?xml version="1.0" encoding="utf-8"?>
<!-- Generated by IcoMoon.io -->
<!DOCTYPE svg PUBLIC "-//W3C//DTD SVG 1.1//EN" "http://www.w3.org/Graphics/SVG/1.1/DTD/svg11.dtd">
<svg version="1.1" xmlns="http://www.w3.org/2000/svg" xmlns:xlink="http://www.w3.org/1999/xlink" width="120" height="120" viewBox="0 0 120 120">
<g>
</g>
	<path d="M60 49.091c-6.025 0-10.909 4.884-10.909 10.909 0 6.024 4.884 10.91 10.909 10.91 6.024 0 10.91-4.885 10.91-10.91s-4.886-10.909-10.91-10.909zM84.386 57.272c-1.258-11.375-10.284-20.396-21.659-21.658v-5.615h-5.454v5.616c-11.375 1.261-20.401 10.283-21.659 21.658h-5.615v5.454h5.615c1.256 11.374 10.284 20.396 21.659 21.659v5.614h5.454v-5.614c11.376-1.262 20.401-10.286 21.659-21.659h5.614v-5.454h-5.614zM60 79.090c-10.545 0-19.091-8.546-19.091-19.090 0-10.543 8.546-19.091 19.091-19.091s19.090 8.549 19.090 19.091c0 10.545-8.545 19.090-19.090 19.090z" fill="#000000"></path>
</svg>
