<?xml version="1.0" encoding="utf-8"?>
<!-- Generated by IcoMoon.io -->
<!DOCTYPE svg PUBLIC "-//W3C//DTD SVG 1.1//EN" "http://www.w3.org/Graphics/SVG/1.1/DTD/svg11.dtd">
<svg version="1.1" xmlns="http://www.w3.org/2000/svg" xmlns:xlink="http://www.w3.org/1999/xlink" width="120" height="120" viewBox="0 0 120 120">
<g>
</g>
	<path d="M89.974 58.919c-1.2 0.004-4.76 0.035-8.582 0.193-0.080-2.624-0.617-5.341-1.993-7.723-1.915-3.326-5.192-5.462-9.472-6.174-8.97-1.495-15.365 7.431-21.031 15.298-2.576 3.576-6.469 8.985-8.338 9.137-0.291 0.019-0.724-0.411-0.857-0.546-3.004-3.004 0.294-8.905 4.914-16.319 4.069-6.527 7.912-12.675 4.685-17.514-1.956-2.938-4.479-3.613-6.253-3.689-0.111-0.004-0.224 0.058-0.339 0.058-5.945 0-11.615 6.836-12.707 8.203l5.368 4.217c1.816-2.27 5.434-5.31 7.314-5.31 0.023 0 0.045 0 0.068 0 0.139 0 0.396-0.165 0.829 0.479 0.767 1.15-3.134 7.060-4.799 9.733-4.922 7.898-11.046 17.804-3.939 24.908 2.33 2.329 4.685 2.696 6.272 2.589 5.041-0.412 8.897-5.747 13.366-11.953 4.498-6.246 9.647-13.31 14.318-12.523 2.991 0.501 4.084 1.852 4.648 2.824 0.765 1.321 1.061 3.015 1.079 4.756-1.549 0.166-2.889 0.373-3.801 0.628-3.881 1.094-15.107 6.589-16.921 14.615-0.615 2.728-0.398 6.805 4.13 10.768 2.489 2.18 4.83 2.842 6.76 2.842 0.926 0 1.764-0.157 2.471-0.367 7.63-2.297 11.546-14.873 12.353-17.76 0.215-0.596 0.752-2.166 1.2-4.262 3.227-0.148 6.72-0.219 9.29-0.233l-0.030-6.874zM73.014 68.030l-0.094 0.295c-1.356 4.937-4.799 12.254-7.744 13.14-0.309 0.089-1.124 0.336-2.722-1.066-2.396-2.095-2.071-3.532-1.95-4.074 0.9-3.985 8.437-8.489 12.077-9.509 0.236-0.067 0.538-0.13 0.891-0.188-0.163 0.555-0.324 1.034-0.459 1.401z" fill="#000000"></path>
</svg>
