<?xml version="1.0" encoding="utf-8"?>
<!-- Generated by IcoMoon.io -->
<!DOCTYPE svg PUBLIC "-//W3C//DTD SVG 1.1//EN" "http://www.w3.org/Graphics/SVG/1.1/DTD/svg11.dtd">
<svg version="1.1" xmlns="http://www.w3.org/2000/svg" xmlns:xlink="http://www.w3.org/1999/xlink" width="120" height="120" viewBox="0 0 120 120">
<g>
</g>
	<path d="M73.333 39c5.884 0 10.667 4.785 10.667 10.666s-11.84 19.181-23.994 29.55c-12.161-10.397-24.006-23.709-24.006-29.55 0-5.881 4.785-10.666 10.667-10.666 7.276 0 13.333 9 13.333 9s5.69-9 13.333-9zM73.333 33c-5.479 0-10.294 2.678-13.333 6.759-3.039-4.081-7.855-6.759-13.334-6.759-9.204 0-16.666 7.463-16.666 16.666 0 13.334 30 37.334 30 37.334s30-23.921 30-37.333c0-9.205-7.462-16.667-16.667-16.667v0z" fill="#000000"></path>
</svg>
