<?xml version="1.0" encoding="utf-8"?>
<!-- Generated by IcoMoon.io -->
<!DOCTYPE svg PUBLIC "-//W3C//DTD SVG 1.1//EN" "http://www.w3.org/Graphics/SVG/1.1/DTD/svg11.dtd">
<svg version="1.1" xmlns="http://www.w3.org/2000/svg" xmlns:xlink="http://www.w3.org/1999/xlink" width="120" height="120" viewBox="0 0 120 120">
<g>
</g>
	<path d="M63 75h-6v-6h6v6z" fill="#000000"></path>
	<path d="M60 36c13.234 0 24 10.766 24 24s-10.766 24-24 24-24-10.766-24-24 10.766-24 24-24zM60 30c-16.567 0-30 13.431-30 30 0 16.57 13.433 30 30 30s30-13.43 30-30c0-16.569-13.433-30-30-30v0z" fill="#000000"></path>
	<path d="M57 66c0-4.265 1.761-5.849 3.319-7.085 0.809-0.75 1.454-1.569 1.936-2.456 0.484-0.889 0.724-1.906 0.724-3.050 0-1.236-0.272-2.215-0.82-2.931-0.546-0.718-1.321-1.075-2.329-1.075-0.794 0-2.956 0.38-2.956 4.551h-5.83l-0.044-1.079c-0.041-2.566 0.761-4.52 2.405-5.861 1.646-1.343 3.789-2.012 6.425-2.012 2.85 0 5.091 0.75 6.724 2.25s2.446 3.54 2.446 6.119c0 7.054-6 7.523-6 12.631h-6z" fill="#000000"></path>
</svg>
