<?xml version="1.0" encoding="utf-8"?>
<!-- Generated by IcoMoon.io -->
<!DOCTYPE svg PUBLIC "-//W3C//DTD SVG 1.1//EN" "http://www.w3.org/Graphics/SVG/1.1/DTD/svg11.dtd">
<svg version="1.1" xmlns="http://www.w3.org/2000/svg" xmlns:xlink="http://www.w3.org/1999/xlink" width="120" height="120" viewBox="0 0 120 120">
<g>
</g>
	<path d="M84 42v36h-48v-36h48zM84 36h-48c-3.313 0-6 2.686-6 6v36c0 3.313 2.686 6 6 6h48c3.313 0 6-2.686 6-6v-36c0-3.314-2.686-6-6-6v0z" fill="#000000"></path>
	<path d="M48 54l12 9 6-3 12 7.271v4.729h-36v-12z" fill="#000000"></path>
	<path d="M78 52.5c0 2.485-2.015 4.5-4.5 4.5s-4.5-2.015-4.5-4.5c0-2.485 2.015-4.5 4.5-4.5s4.5 2.015 4.5 4.5z" fill="#000000"></path>
</svg>
