<?xml version="1.0" encoding="utf-8"?>
<!-- Generated by IcoMoon.io -->
<!DOCTYPE svg PUBLIC "-//W3C//DTD SVG 1.1//EN" "http://www.w3.org/Graphics/SVG/1.1/DTD/svg11.dtd">
<svg version="1.1" xmlns="http://www.w3.org/2000/svg" xmlns:xlink="http://www.w3.org/1999/xlink" width="120" height="120" viewBox="0 0 120 120">
<g>
</g>
	<path d="M88.476 37.424l-4.615-5.604c-0.921-1.11-2.309-1.82-3.861-1.82h-40c-1.553 0-2.94 0.71-3.857 1.82l-4.619 5.604c-0.951 1.154-1.524 2.633-1.524 4.243v41.666c0 3.685 2.985 6.667 6.666 6.667h46.666c3.682 0 6.667-2.983 6.667-6.666v-41.668c0-1.61-0.57-3.089-1.524-4.243zM60 78.334l-18.334-18.334h11.666v-6.666h13.334v6.666h11.668l-18.334 18.334zM37.084 36.666l2.709-3.334h40l3.125 3.334h-45.834z" fill="#000000"></path>
</svg>
