<?xml version="1.0" encoding="utf-8"?>
<!-- Generated by IcoMoon.io -->
<!DOCTYPE svg PUBLIC "-//W3C//DTD SVG 1.1//EN" "http://www.w3.org/Graphics/SVG/1.1/DTD/svg11.dtd">
<svg version="1.1" xmlns="http://www.w3.org/2000/svg" xmlns:xlink="http://www.w3.org/1999/xlink" width="120" height="120" viewBox="0 0 120 120">
<g>
</g>
	<path d="M90 45.469c0-3.205-1.006-4.219-4.214-4.219h-48.388c-3.206 0-7.399 1.014-7.399 4.219v27.097c0 3.209 4.193 6.184 7.399 6.184h48.386c3.209 0 4.215-2.975 4.215-6.184v-27.097zM65 46.25h6.25v6.25h-6.25v-6.25zM65 56.25h6.25v6.25h-6.25v-6.25zM57.5 46.25h6.25v6.25h-6.25v-6.25zM57.5 56.25h6.25v6.25h-6.25v-6.25zM50 46.25h6.25v6.25h-6.25v-6.25zM50 56.25h6.25v6.25h-6.25v-6.25zM42.5 46.25h5v6.25h-5v-6.25zM42.5 56.25h5v6.25h-5v-6.25zM75 69.961c0 0.714-0.364 1.289-1.433 1.289h-23.225c-1.067 0-2.842-0.575-2.842-1.289v-1.289c0-0.715 1.775-1.172 2.842-1.172h23.225c1.069 0 1.433 0.457 1.433 1.172v1.289zM78.75 62.5h-5v-6.25h5v6.25zM78.75 52.5h-5v-6.25h5v6.25z" fill="#000000"></path>
</svg>
