<?xml version="1.0" encoding="utf-8"?>
<!-- Generated by IcoMoon.io -->
<!DOCTYPE svg PUBLIC "-//W3C//DTD SVG 1.1//EN" "http://www.w3.org/Graphics/SVG/1.1/DTD/svg11.dtd">
<svg version="1.1" xmlns="http://www.w3.org/2000/svg" xmlns:xlink="http://www.w3.org/1999/xlink" width="120" height="120" viewBox="0 0 120 120">
<g>
</g>
	<path d="M77.143 50v-2.858c0-9.466-7.676-17.143-17.143-17.143-9.467 0-17.115 7.676-17.115 17.143l-0.028 2.858c-3.155 0-5.714 2.559-5.714 5.714v28.571c0 3.155 2.559 5.714 5.714 5.714h34.285c3.156 0 5.715-2.559 5.715-5.714v-28.571c0-3.155-2.559-5.714-5.715-5.714zM60 75.714c-3.155 0-5.714-2.559-5.714-5.714s2.559-5.714 5.714-5.714 5.714 2.559 5.714 5.714-2.559 5.714-5.714 5.714zM71.713 50h-23.428v-2.858c0-6.459 5.227-11.694 11.681-11.713 0.011 0 0.023-0.002 0.034-0.002s0.023 0.002 0.034 0.002c6.454 0.019 11.679 5.252 11.679 11.713v2.858z" fill="#000000"></path>
</svg>
