<?xml version="1.0" encoding="utf-8"?>
<!-- Generated by IcoMoon.io -->
<!DOCTYPE svg PUBLIC "-//W3C//DTD SVG 1.1//EN" "http://www.w3.org/Graphics/SVG/1.1/DTD/svg11.dtd">
<svg version="1.1" xmlns="http://www.w3.org/2000/svg" xmlns:xlink="http://www.w3.org/1999/xlink" width="120" height="120" viewBox="0 0 120 120">
<g>
</g>
	<path d="M84 84v-30c0-3.314-2.686-6-6-6h-36c-3.314 0-6 2.686-6 6v30c0 3.311 2.686 6 6 6h36c3.314 0 6-2.685 6-6zM66 69c0 3.311-2.686 6-6 6s-6-2.685-6-6 2.686-6 6-6c3.313 0 6 2.686 6 6z" fill="#000000"></path>
	<path d="M78 60c0-1.303 0-13.697 0-15-0.002-9.943-8.057-17.998-18-18-4.339-0.001-8.346 1.545-11.451 4.111-3.107 2.564-5.342 6.156-6.184 10.265l5.879 1.201c0.556-2.726 2.045-5.123 4.124-6.839 2.083-1.714 4.724-2.738 7.633-2.739 3.324 0.001 6.305 1.339 8.485 3.515 2.176 2.181 3.514 5.161 3.515 8.486 0 1.303 0 13.697 0 15h6z" fill="#000000"></path>
</svg>
