<?xml version="1.0" encoding="utf-8"?>
<!-- Generated by IcoMoon.io -->
<!DOCTYPE svg PUBLIC "-//W3C//DTD SVG 1.1//EN" "http://www.w3.org/Graphics/SVG/1.1/DTD/svg11.dtd">
<svg version="1.1" xmlns="http://www.w3.org/2000/svg" xmlns:xlink="http://www.w3.org/1999/xlink" width="120" height="120" viewBox="0 0 120 120">
<g>
</g>
	<path d="M82.774 35l-4.776-5-4.159 4.331-4.176-4.331-4.496 4.664-4.5-4.664-4.824 5-4.83-5-4.825 5-4.83-5-4.429 5-4.429-5v60l4.57-5 4.695 5 4.12-4.333 4.154 4.333 4.489-4.667 4.494 4.667 4.824-5 4.826 5 4.829-5 4.825 5 4.586-5 4.589 5v-60l-4.726 5zM77.5 73.75h-35v-7.5h35v7.5zM77.5 62.5h-35v-8.75h35v8.75zM77.5 50h-35v-7.5h35v7.5z" fill="#000000"></path>
</svg>
