<?xml version="1.0" encoding="utf-8"?>
<!-- Generated by IcoMoon.io -->
<!DOCTYPE svg PUBLIC "-//W3C//DTD SVG 1.1//EN" "http://www.w3.org/Graphics/SVG/1.1/DTD/svg11.dtd">
<svg version="1.1" xmlns="http://www.w3.org/2000/svg" xmlns:xlink="http://www.w3.org/1999/xlink" width="120" height="120" viewBox="0 0 120 120">
<g>
</g>
	<path d="M66.767 45.047c-0.725-0.763-1.929-0.793-2.692-0.071l-33.479 31.663c-0.369 0.345-0.583 0.826-0.596 1.333-0.014 0.505 0.175 0.998 0.525 1.363l7.88 8.291c0.724 0.76 1.929 0.794 2.691 0.071l30.703-29.034c1.104-1.046 1.748-2.488 1.787-4.006s-0.525-2.99-1.574-4.091l-5.245-5.518zM63.283 62.942l-6.826-7.183 8.822-8.265 6.826 7.179-8.822 8.269z" fill="#000000"></path>
	<path d="M47.466 41.57l6.314 2.845-2.842-6.315 2.842-6.319-6.314 2.845-6.317-2.845 2.844 6.319-2.844 6.315z" fill="#000000"></path>
	<path d="M90 31.781l-6.315 2.845-6.315-2.845 2.841 6.319-2.841 6.315 6.315-2.845 6.315 2.845-2.843-6.315z" fill="#000000"></path>
	<path d="M83.685 67.967l-6.315-2.84 2.841 6.314-2.841 6.315 6.315-2.84 6.315 2.84-2.843-6.315 2.843-6.314z" fill="#000000"></path>
</svg>
