<?xml version="1.0" encoding="utf-8"?>
<!-- Generated by IcoMoon.io -->
<!DOCTYPE svg PUBLIC "-//W3C//DTD SVG 1.1//EN" "http://www.w3.org/Graphics/SVG/1.1/DTD/svg11.dtd">
<svg version="1.1" xmlns="http://www.w3.org/2000/svg" xmlns:xlink="http://www.w3.org/1999/xlink" width="120" height="120" viewBox="0 0 120 120">
<g>
</g>
	<path d="M60 67.894c5.231 0 9.444-4.244 9.444-9.474l0.026-18.947c0-5.235-4.239-9.472-9.47-9.472-5.23 0-9.474 4.237-9.474 9.474v18.947c0 5.23 4.244 9.472 9.474 9.472zM76.734 58.421c0 9.474-8.012 16.104-16.734 16.104-8.724 0-16.736-6.631-16.736-16.104h-5.369c0 10.784 8.585 19.685 18.947 21.214v10.365h6.316v-10.365c10.352-1.53 18.947-10.43 18.947-21.214h-5.372z" fill="#000000"></path>
</svg>
