<?xml version="1.0" encoding="utf-8"?>
<!-- Generated by IcoMoon.io -->
<!DOCTYPE svg PUBLIC "-//W3C//DTD SVG 1.1//EN" "http://www.w3.org/Graphics/SVG/1.1/DTD/svg11.dtd">
<svg version="1.1" xmlns="http://www.w3.org/2000/svg" xmlns:xlink="http://www.w3.org/1999/xlink" width="120" height="120" viewBox="0 0 120 120">
<g>
</g>
	<path d="M75 60c0-5.886-3.399-10.966-8.334-13.427v7.366l8.181 8.18c0.1-0.692 0.152-1.399 0.152-2.119zM83.334 60c0 3.13-0.681 6.080-1.798 8.809l5.045 5.045c2.173-4.146 3.419-8.85 3.419-13.854 0-14.278-9.976-26.201-23.334-29.234v6.876c9.636 2.873 16.667 11.791 16.667 22.358zM34.245 30l-4.245 4.244 15.755 15.756h-15.755v20h13.334l16.666 16.666v-22.421l14.184 14.184c-2.234 1.723-4.746 3.099-7.517 3.926v6.879c4.59-1.045 8.764-3.157 12.285-6.039l6.804 6.805 4.245-4.245-55.755-55.755zM60 33.334l-6.97 6.97 6.97 6.969v-13.939z" fill="#000000"></path>
</svg>
