<?xml version="1.0" encoding="utf-8"?>
<!-- Generated by IcoMoon.io -->
<!DOCTYPE svg PUBLIC "-//W3C//DTD SVG 1.1//EN" "http://www.w3.org/Graphics/SVG/1.1/DTD/svg11.dtd">
<svg version="1.1" xmlns="http://www.w3.org/2000/svg" xmlns:xlink="http://www.w3.org/1999/xlink" width="120" height="120" viewBox="0 0 120 120">
<g>
</g>
	<path d="M84.493 37.292l-5.34-5.357-4.565 4.641-4.526-4.641-4.847 4.999-4.836-4.999-5.177 5.357-5.177-5.357-5.174 5.357-5.175-5.357-4.836 5.357-4.837-5.356v51.429c0 3.55 2.207 4.135 5.759 4.135h47.143c3.551 0 7.099-0.585 7.099-4.136v-51.429l-5.507 5.357zM57.5 78.75h-21.25v-22.5h21.25v22.5zM83.75 78.75h-21.25v-3.75h21.25v3.75zM83.75 72.5h-21.25v-3.75h21.25v3.75zM83.75 66.25h-21.25v-3.75h21.25v3.75zM83.75 60h-21.25v-3.75h21.25v3.75zM83.75 51.25h-47.5v-6.25h47.5v6.25z" fill="#000000"></path>
</svg>
