<?xml version="1.0" encoding="utf-8"?>
<!-- Generated by IcoMoon.io -->
<!DOCTYPE svg PUBLIC "-//W3C//DTD SVG 1.1//EN" "http://www.w3.org/Graphics/SVG/1.1/DTD/svg11.dtd">
<svg version="1.1" xmlns="http://www.w3.org/2000/svg" xmlns:xlink="http://www.w3.org/1999/xlink" width="120" height="120" viewBox="0 0 120 120">
<g>
</g>
	<path d="M60 45c4.145 0 7.5-3.355 7.5-7.5 0-4.139-3.355-7.5-7.5-7.5-4.139 0-7.5 3.361-7.5 7.5 0 4.145 3.361 7.5 7.5 7.5zM60 52.5c-4.139 0-7.5 3.361-7.5 7.5 0 4.145 3.361 7.5 7.5 7.5 4.145 0 7.5-3.355 7.5-7.5 0-4.139-3.355-7.5-7.5-7.5zM60 75c-4.139 0-7.5 3.361-7.5 7.5 0 4.145 3.361 7.5 7.5 7.5 4.145 0 7.5-3.355 7.5-7.5 0-4.139-3.355-7.5-7.5-7.5z" fill="#000000"></path>
</svg>
