<?xml version="1.0" encoding="utf-8"?>
<!-- Generated by IcoMoon.io -->
<!DOCTYPE svg PUBLIC "-//W3C//DTD SVG 1.1//EN" "http://www.w3.org/Graphics/SVG/1.1/DTD/svg11.dtd">
<svg version="1.1" xmlns="http://www.w3.org/2000/svg" xmlns:xlink="http://www.w3.org/1999/xlink" width="120" height="120" viewBox="0 0 120 120">
<g>
</g>
	<path d="M37.5 52.5c-4.14 0-7.5 3.36-7.5 7.5 0 4.142 3.36 7.5 7.5 7.5 4.144 0 7.5-3.358 7.5-7.5 0-4.14-3.356-7.5-7.5-7.5zM82.5 52.5c-4.14 0-7.5 3.36-7.5 7.5 0 4.142 3.36 7.5 7.5 7.5 4.142 0 7.5-3.358 7.5-7.5 0-4.14-3.358-7.5-7.5-7.5zM60 52.5c-4.14 0-7.5 3.36-7.5 7.5 0 4.142 3.36 7.5 7.5 7.5 4.142 0 7.5-3.358 7.5-7.5 0-4.14-3.358-7.5-7.5-7.5z" fill="#000000"></path>
</svg>
