<?xml version="1.0" encoding="utf-8"?>
<!-- Generated by IcoMoon.io -->
<!DOCTYPE svg PUBLIC "-//W3C//DTD SVG 1.1//EN" "http://www.w3.org/Graphics/SVG/1.1/DTD/svg11.dtd">
<svg version="1.1" xmlns="http://www.w3.org/2000/svg" xmlns:xlink="http://www.w3.org/1999/xlink" width="120" height="120" viewBox="0 0 120 120">
<g>
</g>
	<path d="M72.5 90h5v-5h-5v5zM82.5 55v5h5c0-2.76-2.236-5-5-5zM52.5 70h5v-5h-5v5zM57.5 90v-5h-5c0 2.764 2.237 5 5 5zM62.5 90h5v-5h-5v5zM52.5 60h5v-5c-2.762 0-5 2.24-5 5zM82.5 80h5v-5h-5v5zM82.5 70h5v-5h-5v5zM82.5 90c2.764 0 5-2.236 5-5h-5v5zM72.5 35h-10.46c-1.031-2.905-3.779-5-7.040-5-3.259 0-6.008 2.095-7.040 5h-10.46c-2.762 0-5 2.237-5 5v35c0 2.764 2.237 5 5 5h35c2.764 0 5-2.236 5-5v-35c0-2.762-2.236-5-5-5zM55 35c1.38 0 2.5 1.119 2.5 2.5s-1.12 2.5-2.5 2.5c-1.38 0-2.5-1.119-2.5-2.5s1.12-2.5 2.5-2.5zM72.5 75h-35v-35h5v5h25v-5h5v35zM62.5 60h5v-5h-5v5z" fill="#000000"></path>
</svg>
