<?xml version="1.0" encoding="utf-8"?>
<!-- Generated by IcoMoon.io -->
<!DOCTYPE svg PUBLIC "-//W3C//DTD SVG 1.1//EN" "http://www.w3.org/Graphics/SVG/1.1/DTD/svg11.dtd">
<svg version="1.1" xmlns="http://www.w3.org/2000/svg" xmlns:xlink="http://www.w3.org/1999/xlink" width="120" height="120" viewBox="0 0 120 120">
<g>
</g>
	<path d="M42.080 55.984c4.802 9.436 12.519 17.147 21.958 21.949l6.94-6.955c0.605-0.606 1.439-0.977 2.356-0.977h13.333c1.843 0 3.334 1.49 3.334 3.332v13.334c0 1.843-1.491 3.332-3.334 3.332-31.295 0-56.666-25.37-56.666-56.665 0-1.843 1.494-3.334 3.334-3.334h13.333c1.844 0 3.334 1.491 3.334 3.334v13.333c0 0.917-0.37 1.751-0.974 2.356l-6.946 6.961z" fill="#000000"></path>
</svg>
