<?xml version="1.0" encoding="utf-8"?>
<!-- Generated by IcoMoon.io -->
<!DOCTYPE svg PUBLIC "-//W3C//DTD SVG 1.1//EN" "http://www.w3.org/Graphics/SVG/1.1/DTD/svg11.dtd">
<svg version="1.1" xmlns="http://www.w3.org/2000/svg" xmlns:xlink="http://www.w3.org/1999/xlink" width="120" height="120" viewBox="0 0 120 120">
<g>
</g>
	<path d="M82.412 79.899c4.909-5.498 7.588-12.466 7.588-19.899 0-1.745-0.172-3.541-0.51-5.357h-21.509l14.431 25.256z" fill="#000000"></path>
	<path d="M70.116 31.768l-10.765 18.645 29.093 0.129c-2.894-8.71-9.665-15.669-18.328-18.774z" fill="#000000"></path>
	<path d="M66.039 30.617c-1.988-0.41-4.009-0.617-6.039-0.617-7.135 0-13.954 2.524-19.386 7.141l10.756 18.631 14.669-25.155z" fill="#000000"></path>
	<path d="M30 60c0 1.746 0.167 3.541 0.506 5.357l21.516 0.001-14.435-25.258c-4.913 5.496-7.588 12.465-7.588 19.899z" fill="#000000"></path>
	<path d="M49.884 88.234l10.769-18.645-29.1-0.129c2.893 8.71 9.664 15.669 18.331 18.774z" fill="#000000"></path>
	<path d="M53.96 89.385c1.989 0.407 4.010 0.615 6.040 0.615 7.136 0 13.954-2.524 19.382-7.14l-10.753-18.629-14.67 25.154z" fill="#000000"></path>
</svg>
