<?xml version="1.0" encoding="utf-8"?>
<!-- Generated by IcoMoon.io -->
<!DOCTYPE svg PUBLIC "-//W3C//DTD SVG 1.1//EN" "http://www.w3.org/Graphics/SVG/1.1/DTD/svg11.dtd">
<svg version="1.1" xmlns="http://www.w3.org/2000/svg" xmlns:xlink="http://www.w3.org/1999/xlink" width="120" height="120" viewBox="0 0 120 120">
<g>
</g>
	<path d="M83.316 30h-46.666c-3.681 0-6.634 2.985-6.634 6.666v46.666c0 3.681 2.953 6.666 6.634 6.666h46.666c3.681 0 6.667-2.985 6.667-6.666v-46.666c0-3.681-2.985-6.666-6.667-6.666zM83.316 71.666c0 0.917-0.749 1.667-1.666 1.667h-43.333c-0.92 0-1.666-0.75-1.666-1.667v-23.333c0-0.917 0.748-1.666 1.666-1.666h43.333c0.917 0 1.666 0.749 1.666 1.666v23.333z" fill="#000000"></path>
</svg>
