<?xml version="1.0" encoding="utf-8"?>
<!-- Generated by IcoMoon.io -->
<!DOCTYPE svg PUBLIC "-//W3C//DTD SVG 1.1//EN" "http://www.w3.org/Graphics/SVG/1.1/DTD/svg11.dtd">
<svg version="1.1" xmlns="http://www.w3.org/2000/svg" xmlns:xlink="http://www.w3.org/1999/xlink" width="120" height="120" viewBox="0 0 120 120">
<g>
</g>
	<path d="M90 48c0-3.316-2.683-6-6-6h-35.090l17.090-7.011-2.068-4.989-30.223 12.454c-2.179 0.844-3.71 3.041-3.71 5.546v36c0 3.316 2.685 6 6 6h48c3.316 0 6-2.683 6-6v-36zM45 84c-4.97 0-9-4.029-9-9s4.030-9 9-9c4.973 0 9 4.029 9 9s-4.027 9-9 9zM84 60h-48v-12h48v12z" fill="#000000"></path>
</svg>
