<?xml version="1.0" encoding="utf-8"?>
<!-- Generated by IcoMoon.io -->
<!DOCTYPE svg PUBLIC "-//W3C//DTD SVG 1.1//EN" "http://www.w3.org/Graphics/SVG/1.1/DTD/svg11.dtd">
<svg version="1.1" xmlns="http://www.w3.org/2000/svg" xmlns:xlink="http://www.w3.org/1999/xlink" width="120" height="120" viewBox="0 0 120 120">
<g>
</g>
	<path d="M56.531 69.109c0.827-0.994 2.072-1.63 3.469-1.63 1.391 0 2.639 0.636 3.464 1.63l4.101 4.939c-0.974 1.595-1.565 3.449-1.565 5.453 0 5.799 4.7 10.5 10.5 10.5s10.499-4.703 10.499-10.5c0-5.801-4.699-10.499-10.499-10.499-1.319 0-2.567 0.272-3.726 0.711l-5.947-7.163 14.749-17.762c3.709-4.462 3.094-11.080-1.366-14.786l-32.986 39.71c-1.16-0.439-2.409-0.711-3.722-0.711-5.799 0-10.5 4.699-10.5 10.499 0 5.799 4.701 10.5 10.5 10.5 5.8 0 10.5-4.703 10.5-10.5 0-2.004-0.595-3.857-1.566-5.451l4.097-4.939zM44.325 83.924c-2.443 0.457-4.795-1.154-5.25-3.598-0.455-2.443 1.154-4.792 3.598-5.25 2.445-0.456 4.793 1.155 5.25 3.599 0.455 2.44-1.156 4.791-3.598 5.249zM60 65.25c-1.245 0-2.25-1.009-2.25-2.25 0-1.243 1.005-2.25 2.25-2.25 1.243 0 2.25 1.007 2.25 2.25s-1.007 2.25-2.25 2.25zM76.5 84c-2.484 0-4.501-2.015-4.501-4.501 0-2.484 2.016-4.5 4.501-4.5s4.5 2.015 4.5 4.5c0 2.486-2.015 4.501-4.5 4.501zM50.25 59.027l6.75-8.027-17.209-21c-4.46 3.706-5.076 10.324-1.37 14.786l11.829 14.241z" fill="#000000"></path>
</svg>
