<?xml version="1.0" encoding="utf-8"?>
<!-- Generated by IcoMoon.io -->
<!DOCTYPE svg PUBLIC "-//W3C//DTD SVG 1.1//EN" "http://www.w3.org/Graphics/SVG/1.1/DTD/svg11.dtd">
<svg version="1.1" xmlns="http://www.w3.org/2000/svg" xmlns:xlink="http://www.w3.org/1999/xlink" width="120" height="120" viewBox="0 0 120 120">
<g>
</g>
	<path d="M72.889 67.733h-2.725l-0.944-0.939c3.346-3.901 5.376-8.956 5.376-14.498 0-12.315-9.982-22.299-22.297-22.299s-22.299 9.984-22.299 22.299c0 12.314 9.984 22.296 22.297 22.296 5.541 0 10.592-2.030 14.492-5.374l0.949 0.945v2.714l17.145 17.125 5.116-5.119-17.111-17.151zM52.297 67.733c-8.526 0-15.437-6.91-15.437-15.436s6.911-15.437 15.437-15.437 15.437 6.911 15.437 15.437-6.911 15.436-15.437 15.436z" fill="#000000"></path>
</svg>
