<?xml version="1.0" encoding="utf-8"?>
<!-- Generated by IcoMoon.io -->
<!DOCTYPE svg PUBLIC "-//W3C//DTD SVG 1.1//EN" "http://www.w3.org/Graphics/SVG/1.1/DTD/svg11.dtd">
<svg version="1.1" xmlns="http://www.w3.org/2000/svg" xmlns:xlink="http://www.w3.org/1999/xlink" width="120" height="120" viewBox="0 0 120 120">
<g>
</g>
	<path d="M83.306 59.606c0-1.198-0.116-2.361-0.29-3.509l6.919-3.994-8.485-14.696-6.759 3.986c-1.825-1.459-4.691-2.644-5.941-3.51v-7.884h-17.5v7.884c-1.25 0.866-4.14 2.051-5.964 3.51l-6.849-3.986-8.458 14.696 6.935 3.994c-0.174 1.147-0.285 2.311-0.285 3.509 0 1.194 0.122 2.357 0.294 3.505l-6.915 3.994 8.484 14.696 6.788-3.986c1.824 1.464 4.72 2.644 5.97 3.51v8.675h17.5v-8.675c1.25-0.865 4.116-2.046 5.942-3.51l6.831 3.986 8.447-14.696-6.938-3.994c0.172-1.148 0.272-2.311 0.272-3.505zM59.972 70.213c-5.859 0-10.606-4.748-10.606-10.606s4.747-10.606 10.606-10.606c5.858 0 10.605 4.747 10.605 10.606s-4.749 10.606-10.605 10.606z" fill="#000000"></path>
</svg>
