<?xml version="1.0" encoding="utf-8"?>
<!-- Generated by IcoMoon.io -->
<!DOCTYPE svg PUBLIC "-//W3C//DTD SVG 1.1//EN" "http://www.w3.org/Graphics/SVG/1.1/DTD/svg11.dtd">
<svg version="1.1" xmlns="http://www.w3.org/2000/svg" xmlns:xlink="http://www.w3.org/1999/xlink" width="120" height="120" viewBox="0 0 120 120">
<g>
</g>
	<path d="M85.712 64.288h-2.858c-0.001 6.319-2.554 12.015-6.694 16.161-4.145 4.14-9.841 6.692-16.161 6.694-6.315-0.001-12.011-2.554-16.159-6.695-4.142-4.145-6.696-9.841-6.697-16.16 0.001-6.317 2.556-12.015 6.699-16.161 4.147-4.142 9.844-6.696 16.157-6.697 6.32 0.001 12.015 2.555 16.161 6.696 4.14 4.146 6.692 9.844 6.694 16.163h5.714c-0.001-15.778-12.79-28.571-28.569-28.574-15.771 0.004-28.568 12.796-28.57 28.574 0.002 15.779 12.799 28.566 28.57 28.57 15.779-0.002 28.567-12.793 28.569-28.57h-2.856z" fill="#000000"></path>
	<path d="M51.429 32.858h17.143v-5.715h-17.143z" fill="#000000"></path>
	<path d="M57.142 47.143v22.858h5.715v-22.858z" fill="#000000"></path>
	<path d="M82.249 37.996l-6.122 6.122 4.041 4.040 6.121-6.122z" fill="#000000"></path>
</svg>
