<?xml version="1.0" encoding="utf-8"?>
<!-- Generated by IcoMoon.io -->
<!DOCTYPE svg PUBLIC "-//W3C//DTD SVG 1.1//EN" "http://www.w3.org/Graphics/SVG/1.1/DTD/svg11.dtd">
<svg version="1.1" xmlns="http://www.w3.org/2000/svg" xmlns:xlink="http://www.w3.org/1999/xlink" width="120" height="120" viewBox="0 0 120 120">
<g>
</g>
	<path d="M30 57c0.002 1.659 0.674 3.155 1.757 4.243v0.002l27.011 26.998c1.085 1.084 2.585 1.757 4.243 1.757 1.659 0 3.157-0.674 4.243-1.755l20.983-20.985c1.090-1.085 1.764-2.59 1.764-4.249 0-1.657-0.671-3.157-1.757-4.243l-27-27.011c-1.090-1.082-2.587-1.755-4.243-1.757h-27v27zM40.5 45c-2.484 0-4.5-2.015-4.5-4.5 0-2.484 2.016-4.5 4.5-4.5 2.485 0 4.5 2.016 4.5 4.5 0 2.485-2.015 4.5-4.5 4.5z" fill="#000000"></path>
</svg>
