<?xml version="1.0" encoding="utf-8"?>
<!-- Generated by IcoMoon.io -->
<!DOCTYPE svg PUBLIC "-//W3C//DTD SVG 1.1//EN" "http://www.w3.org/Graphics/SVG/1.1/DTD/svg11.dtd">
<svg version="1.1" xmlns="http://www.w3.org/2000/svg" xmlns:xlink="http://www.w3.org/1999/xlink" width="120" height="120" viewBox="0 0 120 120">
<g>
</g>
	<path d="M79.090 32.728h10.91v32.728h-10.91v-32.728z" fill="#000000"></path>
	<path d="M44.454 32.728h23.729c3.011 0 5.454 2.443 5.454 5.455v27.741c0 1.446-0.575 2.835-1.597 3.857l-17.494 17.491c0 0-5.454-1.305-5.454-6.411 0-1.979 3.556-12.68 3.556-12.68h-17.192c-3.013 0-5.455-2.443-5.455-5.455v-3.646c0-1.194 0.25-2.37 0.734-3.46l8.736-19.655c0.874-1.967 2.827-3.238 4.984-3.238z" fill="#000000"></path>
</svg>
