<?xml version="1.0" encoding="utf-8"?>
<!-- Generated by IcoMoon.io -->
<!DOCTYPE svg PUBLIC "-//W3C//DTD SVG 1.1//EN" "http://www.w3.org/Graphics/SVG/1.1/DTD/svg11.dtd">
<svg version="1.1" xmlns="http://www.w3.org/2000/svg" xmlns:xlink="http://www.w3.org/1999/xlink" width="120" height="120" viewBox="0 0 120 120">
<g>
</g>
	<path d="M30 54.545h10.909v32.728h-10.909v-32.728z" fill="#000000"></path>
	<path d="M75.546 87.272h-23.728c-3.013 0-5.455-2.443-5.455-5.455v-27.741c0-1.446 0.575-2.834 1.597-3.856l17.492-17.494c0 0 5.455 1.305 5.455 6.411 0 1.979-3.559 12.68-3.559 12.68h17.195c3.011 0 5.454 2.443 5.454 5.455v3.646c0 1.194-0.25 2.371-0.735 3.46l-8.736 19.656c-0.871 1.967-2.828 3.238-4.981 3.238z" fill="#000000"></path>
</svg>
