<?xml version="1.0" encoding="utf-8"?>
<!-- Generated by IcoMoon.io -->
<!DOCTYPE svg PUBLIC "-//W3C//DTD SVG 1.1//EN" "http://www.w3.org/Graphics/SVG/1.1/DTD/svg11.dtd">
<svg version="1.1" xmlns="http://www.w3.org/2000/svg" xmlns:xlink="http://www.w3.org/1999/xlink" width="120" height="120" viewBox="0 0 120 120">
<g>
</g>
	<path d="M89.999 54v-12c0-3.31-2.686-6-6-6h-47.999c-3.315 0-6 2.69-6 6v12c3.311 0 6 2.689 6 6 0 3.316-2.687 6-6 6v12c0 3.315 2.685 6 6 6h47.999c3.313 0 6-2.684 6-6v-12c-3.313 0-6-2.683-6-6 0-3.31 2.687-6 6-6zM69.392 73.5l-9.392-5.665-9.396 5.665 2.488-10.681-8.091-7.319 10.73-0.809 4.27-9.691 4.27 9.691 10.729 0.809-8.093 7.319 2.486 10.681z" fill="#000000"></path>
</svg>
