<?xml version="1.0" encoding="utf-8"?>
<!-- Generated by IcoMoon.io -->
<!DOCTYPE svg PUBLIC "-//W3C//DTD SVG 1.1//EN" "http://www.w3.org/Graphics/SVG/1.1/DTD/svg11.dtd">
<svg version="1.1" xmlns="http://www.w3.org/2000/svg" xmlns:xlink="http://www.w3.org/1999/xlink" width="120" height="120" viewBox="0 0 120 120">
<g>
</g>
	<path d="M84 30.001h-48c-3.311 0-5.97 2.685-5.97 6l-0.030 48c0 3.311 2.687 6 6 6h48c3.311 0 6-2.687 6-6v-48c0-3.315-2.687-6-6-6zM77.124 51.99c-0.191 13.858-9.051 23.35-22.274 23.947-5.455 0.245-9.411-1.51-12.85-3.698 4.031 0.646 9.026-0.965 11.705-3.257-3.954-0.388-6.287-2.396-7.391-5.631 1.14 0.201 2.342 0.149 3.433-0.085-3.564-1.198-6.111-3.4-6.249-8.016 1.005 0.456 2.049 0.885 3.433 0.965-2.674-1.517-4.637-7.065-2.379-10.74 3.962 4.348 8.729 7.888 16.551 8.368-1.963-8.39 9.172-12.945 13.824-7.305 1.97-0.381 3.568-1.125 5.105-1.941-0.63 1.952-1.853 3.313-3.345 4.408 1.63-0.223 3.084-0.621 4.314-1.234-0.756 1.589-2.439 3.020-3.876 4.22z" fill="#000000"></path>
</svg>
