<?xml version="1.0" encoding="utf-8"?>
<!-- Generated by IcoMoon.io -->
<!DOCTYPE svg PUBLIC "-//W3C//DTD SVG 1.1//EN" "http://www.w3.org/Graphics/SVG/1.1/DTD/svg11.dtd">
<svg version="1.1" xmlns="http://www.w3.org/2000/svg" xmlns:xlink="http://www.w3.org/1999/xlink" width="120" height="120" viewBox="0 0 120 120">
<g>
</g>
	<path d="M84.181 31.25h-47.586c-3.429 0-6.595 1.027-6.595 4.454v53.794l12.801-10.748h41.38c3.429 0 5.819-4.444 5.819-7.874v-35.173c0-3.426-2.39-4.454-5.819-4.454zM49.009 58.462c-2.285 0-4.139-1.85-4.139-4.138 0-2.284 1.852-4.139 4.139-4.139s4.138 1.855 4.138 4.139c0 2.288-1.852 4.138-4.138 4.138zM61.423 58.462c-2.285 0-4.138-1.85-4.138-4.138 0-2.284 1.852-4.139 4.138-4.139s4.139 1.855 4.139 4.139c-0.001 2.288-1.854 4.138-4.139 4.138zM73.836 58.462c-2.285 0-4.139-1.85-4.139-4.138 0-2.284 1.853-4.139 4.139-4.139s4.138 1.855 4.138 4.139c0 2.288-1.852 4.138-4.138 4.138z" fill="#000000"></path>
</svg>
