<?xml version="1.0" encoding="utf-8"?>
<!-- Generated by IcoMoon.io -->
<!DOCTYPE svg PUBLIC "-//W3C//DTD SVG 1.1//EN" "http://www.w3.org/Graphics/SVG/1.1/DTD/svg11.dtd">
<svg version="1.1" xmlns="http://www.w3.org/2000/svg" xmlns:xlink="http://www.w3.org/1999/xlink" width="120" height="120" viewBox="0 0 120 120">
<g>
</g>
	<path d="M42.429 58.266l-5.865-2.42c-0.954 2.684-1.41 6.654-1.417 7.904h6.254c0.008-1.25 0.316-3.478 1.029-5.484z" fill="#000000"></path>
	<path d="M42.418 70h-6.501c0.876 5 2.515 7.382 4.801 10.216l4.926-4.105c-1.423-1.735-2.507-1.111-3.226-6.111z" fill="#000000"></path>
	<path d="M45.299 85.237c3.291 2.432 5.951 3.964 10.951 4.573v-6.335c-2.5-0.421-3.932-1.164-5.722-2.229l-5.229 3.991z" fill="#000000"></path>
	<path d="M77.638 47.611c-5.359-5.359-12.551-7.777-19.574-7.226l0.495-10.385-16.141 16.144 2.953 2.951 2.095 2.303c0.036-0.032 0.077-0.061 0.114-0.094l9.512 9.512 0.674-14.13c5.511-0.673 11.251 1.106 15.471 5.326 7.281 7.284 7.328 19.131 0.047 26.415-3.040 3.036-7.034 4.795-10.784 5.295v6.278c6.25-0.531 10.935-2.919 15.185-7.17 9.71-9.712 9.662-25.511-0.047-35.219z" fill="#000000"></path>
</svg>
