<?xml version="1.0" encoding="utf-8"?>
<!-- Generated by IcoMoon.io -->
<!DOCTYPE svg PUBLIC "-//W3C//DTD SVG 1.1//EN" "http://www.w3.org/Graphics/SVG/1.1/DTD/svg11.dtd">
<svg version="1.1" xmlns="http://www.w3.org/2000/svg" xmlns:xlink="http://www.w3.org/1999/xlink" width="120" height="120" viewBox="0 0 120 120">
<g>
</g>
	<path d="M63 30.077v9.089c9 1.459 18 10.183 18 20.759 0 2.689-0.524 5.249-1.446 7.61l7.804 4.6c1.67-3.731 2.642-7.851 2.642-12.21 0-15.55-12-28.335-27-29.848zM60 80.924c-11.601 0-21-9.399-21-20.999 0-10.576 9-19.3 18-20.759v-9.091c-15 1.498-27 14.291-27 29.85 0 16.569 13.404 29.999 29.985 29.999 9.929 0 18.706-4.84 24.17-12.264l-7.786-4.595c-3.85 4.789-9.745 7.859-16.369 7.859z" fill="#000000"></path>
</svg>
