<?xml version="1.0" encoding="utf-8"?>
<!-- Generated by IcoMoon.io -->
<!DOCTYPE svg PUBLIC "-//W3C//DTD SVG 1.1//EN" "http://www.w3.org/Graphics/SVG/1.1/DTD/svg11.dtd">
<svg version="1.1" xmlns="http://www.w3.org/2000/svg" xmlns:xlink="http://www.w3.org/1999/xlink" width="120" height="120" viewBox="0 0 120 120">
<g>
</g>
	<path d="M51.819 50.455c0-4.519 3.662-8.181 8.181-8.181 4.52 0 8.182 3.664 8.182 8.181s-3.662 8.181-8.182 8.181c-4.52 0-8.181-3.662-8.181-8.181zM60 64.090c-12.43 0-16.364 9.092-16.364 9.092v4.544h32.728v-4.544c0 0.001-3.934-9.092-16.364-9.092z" fill="#000000"></path>
	<path d="M84.545 49.091c0 3.765-3.052 6.818-6.817 6.818s-6.818-3.052-6.818-6.818c0-3.765 3.052-6.817 6.818-6.817s6.817 3.052 6.817 6.817z" fill="#000000"></path>
	<path d="M77.728 61.364c-3.347 0-5.86 0.943-7.724 2.144 6.355 3.040 8.728 8.281 8.864 8.593l0.075 0.174h11.057v-3.639c0-0.001-2.95-7.271-12.272-7.271z" fill="#000000"></path>
	<path d="M49.090 49.091c0 3.765-3.052 6.818-6.818 6.818s-6.817-3.052-6.817-6.818c0-3.765 3.052-6.817 6.817-6.817s6.818 3.052 6.818 6.817z" fill="#000000"></path>
	<path d="M42.272 61.364c3.347 0 5.86 0.943 7.724 2.144-6.354 3.040-8.728 8.281-8.864 8.593l-0.075 0.174h-11.057v-3.639c0-0.001 2.951-7.271 12.272-7.271z" fill="#000000"></path>
</svg>
