<?xml version="1.0" encoding="utf-8"?>
<!-- Generated by IcoMoon.io -->
<!DOCTYPE svg PUBLIC "-//W3C//DTD SVG 1.1//EN" "http://www.w3.org/Graphics/SVG/1.1/DTD/svg11.dtd">
<svg version="1.1" xmlns="http://www.w3.org/2000/svg" xmlns:xlink="http://www.w3.org/1999/xlink" width="120" height="120" viewBox="0 0 120 120">
<g>
</g>
	<path d="M70.91 57.272c4.519 0 8.154-3.665 8.154-8.181 0-4.517-3.635-8.182-8.154-8.182-4.517 0-8.182 3.665-8.182 8.182 0 4.516 3.664 8.181 8.182 8.181zM49.091 57.272c4.52 0 8.155-3.665 8.155-8.181 0-4.517-3.635-8.182-8.155-8.182-4.519 0-8.182 3.665-8.182 8.182 0 4.516 3.664 8.181 8.182 8.181zM49.091 62.728c-6.364 0-19.091 3.185-19.091 9.545v6.818h38.182v-6.818c0-6.36-12.727-9.545-19.091-9.545zM70.91 62.728c-0.791 0-1.684 0.047-2.631 0.149 3.159 2.28 5.359 5.351 5.359 9.397v6.818h16.363v-6.818c0-6.361-12.726-9.546-19.090-9.546z" fill="#000000"></path>
</svg>
