<?xml version="1.0" encoding="utf-8"?>
<!-- Generated by IcoMoon.io -->
<!DOCTYPE svg PUBLIC "-//W3C//DTD SVG 1.1//EN" "http://www.w3.org/Graphics/SVG/1.1/DTD/svg11.dtd">
<svg version="1.1" xmlns="http://www.w3.org/2000/svg" xmlns:xlink="http://www.w3.org/1999/xlink" width="120" height="120" viewBox="0 0 120 120">
<g>
</g>
	<path d="M64.129 39.907c2.731 0 4.954-2.22 4.954-4.95 0-2.741-2.222-4.956-4.954-4.956-2.739 0-4.954 2.215-4.954 4.956 0 2.73 2.214 4.95 4.954 4.95zM64.453 56.972h13.436v-4.954h-9.969l-5.505-9.167c-0.814-1.374-2.311-2.293-4.022-2.293-0.47 0-0.925 0.069-1.352 0.199l-14.93 4.655v14.312h4.952v-10.093l5.797-1.806-10.75 42.174h4.952l7.896-22.314 6.415 8.552v13.761h4.954v-17.631l-6.85-12.495 2.017-7.891 2.957 4.99z" fill="#000000"></path>
</svg>
