<?xml version="1.0" encoding="utf-8"?>
<!-- Generated by IcoMoon.io -->
<!DOCTYPE svg PUBLIC "-//W3C//DTD SVG 1.1//EN" "http://www.w3.org/Graphics/SVG/1.1/DTD/svg11.dtd">
<svg version="1.1" xmlns="http://www.w3.org/2000/svg" xmlns:xlink="http://www.w3.org/1999/xlink" width="120" height="120" viewBox="0 0 120 120">
<g>
</g>
	<path d="M84.085 54.149l5.915-7.336c-17.415-14.416-42.586-14.416-60 0l5.915 7.329c6.565-5.431 14.95-8.698 24.085-8.698 9.126-0.001 17.511 3.265 24.085 8.705zM52.284 74.431l7.716 9.569 7.718-9.559c-2.078-1.885-4.775-3.028-7.718-3.028-2.95 0-5.64 1.142-7.716 3.017zM44.645 64.974l6.24 7.735c2.464-2.218 5.634-3.568 9.115-3.568 3.471 0 6.65 1.35 9.111 3.568l6.242-7.735c-4.194-3.465-9.536-5.552-15.354-5.552-5.821 0-11.169 2.087-15.355 5.552zM60 47.687c-8.605 0-16.5 3.077-22.69 8.196l5.921 7.33c4.574-3.784 10.409-6.065 16.77-6.065 6.351 0 12.194 2.281 16.77 6.065l5.909-7.33c-6.189-5.119-14.084-8.196-22.68-8.196z" fill="#000000"></path>
</svg>
